<?xml version="1.0" encoding="utf-8"?>
<!-- Generator: Adobe Illustrator 21.1.0, SVG Export Plug-In . SVG Version: 6.00 Build 0)  -->
<svg version="1.1" id="Calque_1" xmlns="http://www.w3.org/2000/svg" xmlns:xlink="http://www.w3.org/1999/xlink" x="0px" y="0px"
	 width="1708px" height="733.5px" viewBox="0 0 1708 733.5" style="enable-background:new 0 0 1708 733.5;" xml:space="preserve">
<style type="text/css">
	.st0{fill:#F0E511;stroke:#1E1E1C;stroke-width:14;stroke-linejoin:round;stroke-miterlimit:10;}
	.st1{fill:#1C3F87;stroke:#020203;stroke-width:16;stroke-miterlimit:10;}
	.st2{fill:#F0E511;stroke:#1E1E1C;stroke-width:14;stroke-miterlimit:10;}
	.st3{fill:#E5153A;stroke:#1E1E1C;stroke-width:13;stroke-miterlimit:10;}
	.st4{fill:#B01736;}
	.st5{fill:#B5A910;}
	.st6{fill:#EA5730;}
	.st7{fill:#1E1E1C;}
	.st8{fill:none;stroke:#FFFFFF;stroke-width:17;stroke-linecap:round;stroke-miterlimit:10;}
	.st9{fill:#FFFFFF;}
	.st10{fill:#9CC651;stroke:#1E1E1C;stroke-width:16;stroke-linejoin:round;stroke-miterlimit:10;}
	.st11{fill:none;stroke:#1E1E1C;stroke-width:17;stroke-linecap:round;stroke-miterlimit:10;}
	.st12{fill:#E64728;}
	.st13{fill:#91BD43;}
</style>
<g>
	<path class="st0" d="M1158.9,387.7c-141.2,52.7-264.2,69.5-316,62c-194.8-28.1-287.1,1.5-352.5,25.5
		C331.4,533.7,189,626.7,85.2,688.6l-53-507.7c0,0,94.2-116.2,351-135c184.5-13.5,263.8,38.9,440.2,37.8
		c248.9-1.4,358.5-31.5,430.5-48c0,0,56.2-10.4,114,5l0,0c0,0-10.2,121,17.8,202.4c18,52.2,22.7,61.6,22.7,61.6L1158.9,387.7z"/>
	<polygon class="st1" points="8.5,163.5 85.7,118.1 139.7,666.1 65.5,719 	"/>
	<path class="st2" d="M1366.4,40.5l109.3,35.6l24.5,144.8l-91.8,83.9c0,0-34.9-63.9-41.5-135.9S1363.9,67.4,1366.4,40.5z"/>
	<path class="st3" d="M1473.9,70.6l168-61.2l35.5,220.8l-180.7-2.8c0,0-24.1-44.9-29.1-76.6C1462.5,119,1464.4,86,1473.9,70.6z"/>
	
		<ellipse transform="matrix(0.9852 -0.1713 0.1713 0.9852 4.3903 287.1713)" class="st3" cx="1665.8" cy="118.2" rx="30.4" ry="113.2"/>
	<g>
		<path class="st4" d="M1636.4,157.8c-113.5-24.3-109.7-66.3-117.3-96.3l-40.7,14.7c-9.5,15.5-12.2,36.6-7.1,68.2
			c5.1,31.6,29.1,76.6,29.1,76.6l162.7,2.5C1663,223.4,1643.4,187.8,1636.4,157.8z"/>
	</g>
	<path class="st4" d="M1650.4,160.1c0,0,32.3,8.7,44.3,10c0,0,0,48.7-10.3,53.3C1674,228.1,1651.4,169.1,1650.4,160.1z"/>
	<g>
		<path class="st5" d="M495.7,467.1c61.8-21.1,166.5-52,340.6-25.1c48.5,7.5,164.1-4.8,297.6-51l265.7-88.3c0,0-7-13.5-22-53.5
			c-69.1,26.9-180.7,65-251,93c-153.5,61.1-258.9,78.3-517,44c-153-20.4-353.5,69.1-477,127l11,136
			C242.4,593.4,345.3,518.4,495.7,467.1z"/>
	</g>
	<g>
		<g>
			<path class="st6" d="M506.5,368c-28.7,0-93.1-7-139.6-12.9c-30.9-4-104.1-13.9-118.2-21c-18.7-9.4-19.2-20.3-17.9-25.9
				c2.8-11.6,18-19.5,37.8-19.5c0.7,0,1.5,0,2.3,0c1.1,0,2.8,0.1,5,0.2c13.6,0.5,45.5,1.6,81.1,1.6c92.3,0,121.2-7.5,130.2-11.9
				c22.1-10.9,42.9-28.7,64.9-47.6c36.9-31.6,75-64.4,124.2-68.4c5.3-0.4,11.2-0.7,17.6-0.7c31.5,0,71.4,5.1,110.1,10.1
				c32.5,4.2,63.1,8.1,83.2,8.1c3.6,0,6.7-0.1,9.4-0.4c28.1-2.6,47.3-14.8,65.9-26.6c18.7-11.9,36.4-23.2,60.7-23.2
				c1.9,0,3.8,0.1,5.7,0.2c25,1.8,48.2,10.3,68.9,25.1c21.7,15.6,34.9,34.1,42.1,47c3.8,5.3,22.6,36.1-13.8,88.2
				c-27,38.6-65,48.3-140,55.2c-7.9,0.7-16,1.1-24.2,1.1c-44.1,0-85.1-10.7-124.7-21c-37.5-9.8-72.9-19-109.1-19
				c-6.3,0-12.5,0.3-18.6,0.9c-44.5,4.2-75.7,18.8-105.9,32.8c-29.6,13.8-57.7,26.9-94.1,27.7C508.7,368,507.6,368,506.5,368z"/>
			<path class="st7" d="M1023.4,138.3c1.7,0,3.4,0.1,5.1,0.2c50.5,3.7,86.7,36.2,104.4,68.3c0,0,22.4,27.1-13.6,78.7
				c-24.4,35-57.6,44.6-133.8,51.7c-7.9,0.7-15.7,1.1-23.4,1.1c-84,0-157.5-40-233.8-40c-6.4,0-12.9,0.3-19.4,0.9
				c-90.4,8.6-128.8,58.9-199.4,60.5c-1,0-2,0-3.1,0c-50.1,0-234.5-23.3-253.9-33c-27-13.6-9.8-29.3,16.2-29.3c0.7,0,1.3,0,2,0
				c8.4,0.3,44.9,1.8,86.3,1.8c52.5,0,112.9-2.4,134-12.8c60.4-29.9,111-109,186-115.2c5.2-0.4,10.9-0.6,16.9-0.6
				c58,0,149,18.1,193.3,18.1c3.8,0,7.2-0.1,10.2-0.4C956.3,182.6,978.5,138.3,1023.4,138.3 M1023.4,121.3v17V121.3
				c-26.8,0-46.4,12.5-65.3,24.5c-18.5,11.8-36,22.9-62.1,25.3c-2.4,0.2-5.3,0.3-8.6,0.3c-19.6,0-50-3.9-82.2-8
				c-38.9-5-79.1-10.1-111.1-10.1c-6.7,0-12.8,0.2-18.3,0.7c-23.6,1.9-46.9,10.3-71.3,25.7c-20.6,13-39.5,29.1-57.7,44.8
				c-21.6,18.5-42,36-63.1,46.5c-6.7,3.3-32.5,11.1-126.5,11.1c-35.5,0-67.3-1.1-80.8-1.6c-2.1-0.1-3.8-0.1-5-0.2
				c-0.8,0-1.7,0-2.5,0c-24.3,0-42.4,10.2-46.1,26c-1.5,6.5-2.5,23,22.3,35.5c4.5,2.3,13.5,5.4,45.6,10.9c20.4,3.5,46.5,7.3,75.3,11
				c46.7,6,111.5,13,140.6,13c1.2,0,2.4,0,3.5,0c38.2-0.9,67-14.3,97.5-28.5c29.5-13.8,60.1-28,103.1-32.1
				c5.8-0.5,11.7-0.8,17.8-0.8c35,0,70,9.1,106.9,18.7c40.1,10.5,81.7,21.3,126.9,21.3c8.4,0,16.8-0.4,25-1.1
				c77.7-7.2,117.2-17.4,146.1-58.8c17.3-24.7,25.1-48.2,23.3-69.8c-1.2-14.7-6.7-24-9.3-27.8c-10.9-19.3-26.2-36.3-44.3-49.4
				c-22-15.7-46.6-24.7-73.2-26.6C1027.6,121.3,1025.5,121.3,1023.4,121.3L1023.4,121.3z"/>
		</g>
		<path class="st8" d="M460.8,316.2c0,0,39.4-1.9,68-25s90-81.1,128.3-92.1c38.4-11.1,90.6-0.6,90.6-0.6"/>
		
			<ellipse transform="matrix(0.1044 -0.9945 0.9945 0.1044 497.3807 959.3406)" class="st9" cx="781.3" cy="203.5" rx="10" ry="10"/>
		<path class="st10" d="M1100.1,317.9c0,0,75.2-55.5,40.6-118.4c-23.1-42-60.8-71.7-108.2-70.7c-47.4,1.1-96.7,40.1-96.7,40.1
			c20.9,25.8,62.6,21.6,62.6,21.6s4.3,68.8,67.5,70.4C1065.9,261,1049.5,312.1,1100.1,317.9z"/>
		<path class="st11" d="M1137,177c-25.1,5.6,49.9-2.3,31.6-93.5"/>
		<path class="st12" d="M926.3,335.9c-0.6,0.1,1.3,0.1,1.9,0.2c1,0.1,1.9,0.2,2.9,0.3c0.6,0.1,1.1,0.1,1.7,0.2
			c1.6,0.2,3.2,0.3,4.9,0.5c0.4,0,0.7,0.1,1.1,0.1c1.9,0.2,3.9,0.3,5.8,0.4c0.5,0,0.9,0.1,1.4,0.1c1.6,0.1,3.2,0.2,4.8,0.2
			c0.5,0,0.9,0,1.4,0.1c2,0.1,3.9,0.1,5.9,0.2c0.4,0,0.8,0,1.2,0c1.7,0,3.3,0,5,0c0.5,0,1,0,1.5,0c2,0,4-0.1,6-0.1
			c0.3,0,0.5,0,0.8,0c1.8-0.1,3.5-0.2,5.3-0.3c0.5,0,1.1-0.1,1.6-0.1c2-0.1,4.1-0.3,6.1-0.5c0,0,0,0,0,0c41.6-3.9,70.4-8.5,92-17.6
			c-6.2-3.4-11.2-7.9-14.9-13.7c-7.5-11.7-7.8-25.6-6.7-35.2l-2-2.6c-23.2-3.8-41.2-17.1-52.5-39c-5.9-11.5-8.7-22.8-9.9-30
			c-13,0-39.5-2.5-57.5-20.1c-3.4,1.5-7,2.8-10.8,4.1c0,0,52.7,29.2,50.1,70.2C970.6,293.9,935.5,334.1,926.3,335.9z"/>
		<g>
			<path class="st13" d="M1085.8,151.3c3.8,93.5-73.3,63.2-73.3,63.2s11.6,38.4,53.8,38.5c0.2,0,0.4,0,0.6,0
				c2.3,0.2,4.4,1.4,5.7,3.3c1.5,2.1,1.9,4.7,1.1,7.1c-0.1,0.2-5.4,17.4,0.9,30.7l6.7,8.5c3.9,3.1,10.6,5.7,16.8,6.9
				c0,0,65.4-48.4,38.8-100C1136.8,209.6,1120.8,171.8,1085.8,151.3z"/>
		</g>
	</g>
	<path class="st5" d="M1470.7,184.6l16.5,38.5l-77.5,71c0,0-34-70-38-147s1-97,1-97l18.5,5.5c0,0-3,69.5-0.5,99s19,79.5,19,79.5
		L1470.7,184.6z"/>
	<path class="st4" d="M1648.7,13.1c0,0,14,0.5,30.5,52c0,0-35.8-92-41,10.5C1638.2,75.6,1633.4,19.8,1648.7,13.1z"/>
	<polygon class="st5" points="93.7,137.1 145.7,110.1 223.7,543.1 138.7,595.1 	"/>
	<path class="st5" d="M1185,58.8c-20.7,3.8,68-18,93.3-18.7s58.7-1.3,80.7,5.3c0,0-4.7,64.7,0,109.3c4.7,44.7,10,70,18.7,94.3
		l-13.3,6.3c0,0-24-61.3-26-100.7s-2.7-77.3-2.7-77.3s-32-3.3-58.7,0C1250.4,80.8,1268.4,43.4,1185,58.8z"/>
</g>
</svg>
