<?xml version="1.0" encoding="utf-8"?>
<!-- Generator: Adobe Illustrator 16.0.3, SVG Export Plug-In . SVG Version: 6.00 Build 0)  -->
<!DOCTYPE svg PUBLIC "-//W3C//DTD SVG 1.1//EN" "http://www.w3.org/Graphics/SVG/1.1/DTD/svg11.dtd">
<svg version="1.1" id="Calque_1" xmlns="http://www.w3.org/2000/svg" xmlns:xlink="http://www.w3.org/1999/xlink" x="0px" y="0px"
	 width="174.83px" height="13.839px" viewBox="-68.865 7.233 174.83 13.839" enable-background="new -68.865 7.233 174.83 13.839"
	 xml:space="preserve">
<g>
	<path fill="#8C8B8B" d="M-63.584,10.035l-0.028,0.084h0.028l0.07-0.057l0.084-0.14l0.084-0.112l0.084-0.126l0.168-0.267l0.07-0.098
		l0.07-0.111l0.252-0.295l0.14-0.182l0.084-0.112l0.084-0.099l0.098-0.098l0.252-0.238l0.112-0.111l0.098-0.084l0.098-0.07
		l0.196-0.168l0.112-0.07l0.126-0.084l0.084-0.028l0.14-0.084l0.084-0.042l0.14-0.057l0.126-0.041l0.49-0.112h0.126l0.126,0.015
		h0.14l0.14,0.027l0.182,0.042l0.168,0.042l0.126,0.042l0.112,0.056l0.098,0.07l0.098,0.084l0.084,0.084l0.084,0.098l0.07,0.113
		l0.056,0.125l0.056,0.183l0.042,0.168l0.014,0.14l0.028,0.252v0.393l-0.042,0.379l-0.028,0.125l-0.014,0.127l-0.028,0.126
		l-0.084,0.252l-0.028,0.126l-0.042,0.112l-0.084,0.378l-0.042,0.127l-0.056,0.252l-0.028,0.111l-0.028,0.127l-0.042,0.125
		l-0.042,0.112l-0.084,0.253l-0.056,0.252l-0.028,0.111l-0.042,0.127l-0.028,0.125l-0.042,0.113l-0.028,0.125l-0.042,0.127
		l-0.028,0.111l-0.084,0.252l-0.042,0.112l-0.056,0.253l-0.042,0.111l-0.084,0.379l-0.028,0.14l-0.014,0.126l-0.028,0.126
		l-0.042,0.168l-0.042,0.183l-0.028,0.125l-0.028,0.154l-0.014,0.127v0.111l-0.014,0.127v0.756l0.028,0.126l0.042,0.126l0.042,0.112
		l0.042,0.126l0.056,0.111l0.07,0.113l0.084,0.098l0.196,0.141l0.112,0.084l0.112,0.125l0.042,0.197l-0.056,0.209l-0.126,0.197
		l-0.182,0.125l-0.224,0.057l-0.168-0.028l-0.112-0.056l-0.126-0.084l-0.084-0.043l-0.126-0.069l-0.098-0.084l-0.168-0.169
		l-0.07-0.084l-0.07-0.098l-0.084-0.126l-0.07-0.112l-0.056-0.111l-0.042-0.127l-0.028-0.125l-0.028-0.113l-0.056-0.252
		l-0.014-0.125v-0.995l0.028-0.14l0.014-0.168l0.028-0.183l0.014-0.14l0.028-0.252l0.028-0.127l0.042-0.126l0.042-0.183l0.028-0.168
		l0.028-0.14l0.028-0.168l0.056-0.196l0.028-0.084l0.042-0.154l0.028-0.111l0.042-0.127l0.028-0.125l0.07-0.238l0.028-0.127
		l0.042-0.125l0.056-0.154l0.084-0.281l0.042-0.153l0.028-0.126l0.14-0.42l0.056-0.183l0.028-0.099l0.042-0.14l0.042-0.126
		l0.028-0.126l0.042-0.154l0.028-0.084l0.042-0.14l0.028-0.127l0.014-0.14l0.028-0.126l0.014-0.126l0.028-0.126l0.014-0.141V8.816
		l-0.056-0.252l-0.056-0.127L-59.9,8.326l-0.084-0.084l-0.112-0.07l-0.112-0.042l-0.126-0.015h-0.14l-0.308,0.07l-0.182,0.084
		l-0.14,0.07l-0.448,0.322l-0.112,0.07l-0.098,0.084l-0.112,0.098l-0.351,0.35l-0.112,0.154l-0.196,0.211l-0.084,0.098l-0.084,0.084
		l-0.07,0.098l-0.084,0.099l-0.098,0.153l-0.098,0.141l-0.084,0.112l-0.07,0.099l-0.07,0.111l-0.196,0.28l-0.084,0.14l-0.168,0.309
		l-0.056,0.126l-0.182,0.364l-0.14,0.294l-0.056,0.112l-0.084,0.252l-0.042,0.112l-0.028,0.126l-0.028,0.141l-0.042,0.125
		l-0.028,0.113l-0.084,0.252l-0.028,0.125l-0.028,0.113l-0.168,0.504l-0.084,0.378l-0.042,0.126l-0.042,0.112l-0.042,0.126
		l-0.084,0.378l-0.056,0.126l-0.042,0.112l-0.042,0.126l-0.028,0.126l-0.098,0.337l-0.042,0.154l-0.042,0.125l-0.042,0.112
		l-0.042,0.126l-0.056,0.127l-0.056,0.111l-0.112,0.141l-0.182,0.098l-0.224,0.057h-0.238l-0.21-0.057l-0.14-0.126l-0.028-0.154
		l0.042-0.126l0.042-0.112l0.042-0.126l0.042-0.111l0.042-0.127l0.042-0.111l0.056-0.252l0.028-0.113l0.042-0.154l0.028-0.084
		l0.07-0.168l0.042-0.14l0.056-0.153l0.056-0.197l0.042-0.182l0.042-0.126l0.028-0.112l0.084-0.252l0.028-0.111l0.084-0.253
		l0.042-0.183l0.042-0.168l0.042-0.125l0.028-0.127l0.028-0.111l0.042-0.127l0.028-0.125l0.042-0.113l0.042-0.125l0.028-0.127
		l0.07-0.238l0.028-0.125l0.042-0.113l0.028-0.125l0.042-0.112l0.042-0.126l0.056-0.252l0.042-0.168l0.14-0.49l0.098-0.295
		l0.028-0.126l0.028-0.112l0.028-0.125l0.042-0.127l0.028-0.111l0.042-0.127l0.042-0.111l0.084-0.252l0.028-0.113l0.056-0.252
		l0.042-0.111l0.014-0.084l-0.028-0.014l-0.07,0.055l-0.084,0.085l-0.126,0.098l-0.056,0.042l-0.112,0.098l-0.196,0.168
		l-0.196,0.141l-0.112,0.057l-0.126,0.056l-0.112,0.069l-0.21,0.127l-0.224,0.111l-0.126,0.057l-0.112,0.057l-0.126,0.069
		l-0.154,0.069l-0.084,0.057l-0.182,0.084l-0.168,0.112l-0.154,0.099l-0.112,0.069l-0.196,0.168l-0.084,0.099l-0.07,0.098
		l-0.056,0.111l-0.042,0.127l-0.028,0.126l-0.014,0.126v0.28l0.028,0.126l0.07,0.126l0.084,0.099l0.112,0.069l0.126,0.056
		l0.14,0.057l0.126,0.098l0.07,0.168v0.183l-0.07,0.112l-0.126,0.084l-0.168,0.041h-0.14l-0.126-0.014l-0.14-0.041l-0.084-0.015
		l-0.14-0.056l-0.112-0.043l-0.224-0.14l-0.098-0.069l-0.084-0.084l-0.168-0.197l-0.07-0.098l-0.056-0.111l-0.042-0.127
		l-0.028-0.111l-0.028-0.127l-0.014-0.125l0.014-0.154v-0.084l0.014-0.141l0.014-0.126l0.042-0.126l0.112-0.225l0.14-0.224
		l0.098-0.14l0.112-0.127l0.098-0.098l0.224-0.141l0.14-0.098l0.154-0.084l0.126-0.07l0.168-0.07l0.154-0.069l0.112-0.07l0.14-0.056
		l0.266-0.112l0.294-0.112l0.462-0.182l0.112-0.042l0.126-0.07l0.294-0.153l0.14-0.07l0.14-0.099l0.154-0.084l0.126-0.099
		l0.056-0.055l0.49-0.379l0.112-0.111l0.154-0.183l0.084-0.099l0.056-0.111l0.098-0.098l0.112-0.07l0.14-0.028h0.14l0.126,0.015
		l0.14,0.041l0.126,0.057l0.112,0.084l0.042,0.126l-0.014,0.126l-0.028,0.126l-0.028,0.112l-0.056,0.126l-0.028,0.112l-0.042,0.125
		l-0.042,0.183l-0.056,0.21l-0.042,0.183l-0.154,0.462l-0.028,0.141l-0.042,0.168l-0.084,0.252L-63.584,10.035z"/>
	<path fill="#8C8B8B" d="M-54.415,16.324l-0.196,0.168l-0.224,0.141l-0.112,0.056l-0.224,0.14l-0.112,0.057l-0.252,0.084
		l-0.14,0.042l-0.252,0.042l-0.084,0.027l-0.14,0.029l-0.112,0.014h-0.126l-0.154,0.014h-0.126l-0.252-0.027l-0.154-0.043
		l-0.126-0.042l-0.098-0.042l-0.126-0.042l-0.112-0.056l-0.224-0.141l-0.098-0.084l-0.168-0.195l-0.07-0.113l-0.056-0.111
		l-0.07-0.112l-0.084-0.252l-0.056-0.252l-0.028-0.253l-0.014-0.14l0.014-0.126v-0.393l0.028-0.125l0.028-0.113l0.028-0.125
		l0.042-0.252l0.028-0.141l0.028-0.126l0.042-0.112l0.042-0.126l0.056-0.126l0.056-0.112l0.042-0.126l0.07-0.168l0.084-0.168
		l0.07-0.112l0.084-0.112l0.07-0.098l0.084-0.098l0.14-0.225l0.084-0.098l0.182-0.183l0.196-0.168l0.098-0.069l0.112-0.085
		l0.126-0.084l0.154-0.099l0.154-0.084l0.112-0.055l0.14-0.057l0.084-0.028l0.154-0.056l0.084-0.028l0.14-0.042l0.126-0.027
		l0.14-0.015l0.126-0.015h0.322l0.224,0.029l0.182,0.027l0.126,0.028l0.126,0.042l0.112,0.056l0.252,0.154l0.154,0.084l0.098,0.084
		l0.07,0.084l0.084,0.099l0.084,0.111l0.168,0.309l0.042,0.126l0.014,0.126l0.014,0.112l0.056,0.252v0.49l-0.028,0.168l-0.014,0.154
		l-0.014,0.14l-0.084,0.42l-0.056,0.197l-0.042,0.14l-0.056,0.14l-0.056,0.154l-0.042,0.127l-0.084,0.153l-0.126,0.253l-0.07,0.153
		l0.014,0.099l0.112,0.014h0.084l0.154-0.014l0.098-0.015l0.126-0.028l0.14-0.056l0.098-0.056l0.224-0.141l0.098-0.084l0.182-0.182
		l0.168-0.196l0.07-0.099l0.07-0.111l0.07-0.098l0.112-0.225l0.126-0.238l0.042-0.084l0.084-0.126l0.126-0.07l0.168,0.028
		l0.112,0.126l0.014,0.153l-0.042,0.127l-0.168,0.336l-0.07,0.098l-0.14,0.225l-0.056,0.111l-0.07,0.099l-0.084,0.112l-0.07,0.098
		l-0.084,0.084l-0.182,0.196l-0.084,0.084l-0.098,0.084l-0.098,0.07l-0.112,0.084l-0.098,0.056l-0.224,0.112l-0.126,0.056
		l-0.112,0.028l-0.504,0.056l-0.154-0.014l-0.126-0.014l-0.112-0.028l-0.112-0.014l-0.098,0.042l-0.098,0.07L-54.415,16.324z
		 M-57.189,14.797l-0.014,0.168l0.014,0.141l0.014,0.182l0.028,0.225l0.056,0.225l0.098,0.209l0.098,0.141l0.112,0.098l0.154,0.07
		l0.21,0.057h0.182l0.14-0.014l0.14-0.029l0.126-0.055l0.112-0.057l0.126-0.07l0.112-0.07l0.098-0.084l0.112-0.084l0.056-0.098
		v-0.084l-0.056-0.098l-0.07-0.113l-0.028-0.125l0.028-0.168l0.056-0.168l0.098-0.084l0.112-0.07l0.126-0.015l0.126,0.028
		l0.098,0.027l0.084-0.014l0.056-0.084l0.042-0.111l0.168-0.505l0.084-0.378l0.028-0.182l0.042-0.238l0.028-0.477l-0.014-0.225
		l-0.056-0.238l-0.084-0.209l-0.098-0.141l-0.112-0.084l-0.168-0.07l-0.21-0.042l-0.182-0.015h-0.14l-0.112,0.029l-0.126,0.041
		l-0.14,0.084l-0.112,0.07l-0.126,0.084l-0.14,0.112l-0.098,0.084l-0.098,0.099l-0.07,0.098l-0.084,0.098l-0.07,0.112l-0.14,0.196
		l-0.07,0.111l-0.28,0.561l-0.042,0.127l-0.028,0.111l-0.084,0.252l-0.028,0.112l-0.042,0.126l-0.014,0.127v0.125L-57.189,14.797z"
		/>
	<path fill="#8C8B8B" d="M-47.234,11.17l0.14-0.015l0.14,0.015l0.126,0.014l0.14,0.027l0.112,0.043l0.112,0.07l0.056,0.111
		l-0.042,0.168l-0.098,0.295l-0.112,0.224l-0.042,0.126l-0.028,0.111l-0.042,0.127l-0.056,0.111l-0.056,0.252l-0.042,0.127
		l-0.042,0.111l-0.042,0.141l-0.042,0.126l-0.028,0.099l-0.042,0.125l-0.028,0.113l-0.028,0.125l-0.042,0.127l-0.084,0.378
		l-0.042,0.168l-0.042,0.183l-0.042,0.14l-0.028,0.168l-0.028,0.183l-0.014,0.14v0.126l-0.014,0.126v0.126l0.028,0.252l0.042,0.127
		l0.07,0.098l0.098,0.057l0.126,0.014l0.112-0.014l0.126-0.057l0.196-0.141l0.098-0.098l0.098-0.084l0.098-0.07l0.168-0.195
		l0.14-0.197l0.084-0.111l0.084-0.098l0.056-0.099l0.056-0.126l0.07-0.112l0.07-0.126l0.056-0.07l0.084-0.14l0.07-0.14l0.07-0.154
		l0.126-0.252l0.084-0.112l0.112-0.07l0.168,0.042l0.112,0.141l0.014,0.14l-0.042,0.126l-0.056,0.112l-0.07,0.099l-0.07,0.111
		l-0.112,0.225l-0.042,0.125l-0.056,0.113l-0.14,0.224l-0.07,0.099l-0.14,0.223l-0.07,0.099l-0.168,0.196l-0.07,0.098l-0.084,0.112
		l-0.168,0.196l-0.182,0.168l-0.084,0.084l-0.196,0.168l-0.224,0.141l-0.336,0.168l-0.252,0.056l-0.126,0.015l-0.168-0.015
		l-0.168-0.042l-0.14-0.056l-0.126-0.112l-0.112-0.126l-0.084-0.126l-0.07-0.168l-0.056-0.225l-0.028-0.225l-0.014-0.182l0.014-0.14
		l0.028-0.14l-0.014-0.057l-0.042,0.07l-0.07,0.111l-0.14,0.197l-0.084,0.111l-0.252,0.295l-0.266,0.266l-0.084,0.098l-0.098,0.07
		l-0.112,0.07l-0.224,0.125l-0.224,0.113l-0.126,0.041l-0.504,0.113l-0.126,0.014l-0.126-0.014l-0.14-0.015l-0.126-0.015
		l-0.098-0.027l-0.126-0.042l-0.112-0.056l-0.196-0.141l-0.098-0.098l-0.14-0.196l-0.056-0.126l-0.042-0.112l-0.014-0.126
		l-0.014-0.141v-0.378l0.014-0.126l0.028-0.126l0.014-0.126l0.028-0.126l0.014-0.126l0.028-0.168l0.042-0.183l0.056-0.252
		l0.042-0.126l0.042-0.168l0.098-0.295l0.042-0.111l0.028-0.127l0.042-0.125l0.014-0.112l0.196-0.589l0.042-0.14l0.154-0.462
		l0.042-0.112l0.042-0.126l0.07-0.168l0.042-0.168l0.042-0.127l0.056-0.111l0.098-0.07l0.126-0.057l0.126-0.027l0.14-0.028
		l0.126,0.015l0.126,0.027l0.126,0.042l0.112,0.056l0.056,0.084v0.113l-0.028,0.125l-0.042,0.127l-0.028,0.111l-0.084,0.252
		l-0.056,0.141l-0.014,0.084l-0.056,0.168l-0.042,0.07l-0.042,0.154l-0.042,0.125l-0.042,0.183l-0.056,0.183l-0.028,0.084
		l-0.056,0.154l-0.042,0.125l-0.028,0.127l-0.042,0.111l-0.056,0.252l-0.014,0.127l-0.028,0.126l-0.042,0.126l-0.056,0.252
		l-0.028,0.112l-0.042,0.126l-0.028,0.126l-0.042,0.183l-0.028,0.224v0.252l0.028,0.224l0.112,0.197l0.182,0.111l0.168,0.028
		l0.252-0.056l0.112-0.057l0.098-0.042l0.112-0.056l0.126-0.07l0.112-0.07l0.196-0.168l0.084-0.084l0.252-0.294l0.07-0.099
		l0.084-0.125l0.084-0.141l0.098-0.154l0.112-0.225l0.07-0.125l0.056-0.112l0.056-0.126l0.042-0.112l0.042-0.126l0.042-0.112
		l0.042-0.126l0.042-0.111l0.056-0.127l0.042-0.111l0.056-0.252l0.042-0.127l0.042-0.111l0.042-0.127l0.042-0.111l0.056-0.127
		l0.028-0.125l0.028-0.113l0.084-0.252l0.042-0.111l0.084-0.252l0.028-0.112l0.042-0.126l0.056-0.112l0.07-0.112l0.098-0.07
		L-47.234,11.17z"/>
	<path fill="#8C8B8B" d="M-38.594,14.306l-0.056,0.127l-0.056,0.111l-0.07,0.112l-0.056,0.112l-0.07,0.126l-0.07,0.112l-0.07,0.098
		l-0.336,0.393l-0.098,0.098l-0.098,0.084l-0.098,0.07l-0.112,0.084l-0.098,0.07l-0.126,0.056l-0.112,0.056l-0.126,0.043
		l-0.098,0.027l-0.126,0.028l-0.168,0.028l-0.14,0.014l-0.098,0.014h-0.14l-0.126-0.014h-0.112l-0.084,0.042l-0.07,0.084
		l-0.07,0.099l-0.098,0.098l-0.126,0.111l-0.14,0.113l-0.126,0.084l-0.154,0.084l-0.14,0.084l-0.126,0.056l-0.182,0.042
		l-0.224,0.042l-0.238,0.015l-0.182,0.014h-0.14l-0.14-0.014l-0.126-0.043l-0.098-0.042l-0.126-0.056l-0.126-0.07l-0.21-0.154
		l-0.098-0.084l-0.098-0.098l-0.21-0.336l-0.042-0.127l-0.084-0.378l-0.014-0.14V15.33l0.028-0.141l0.084-0.154l0.168-0.14
		l0.21-0.056l0.168,0.014l0.084,0.084l0.014,0.111v0.127l-0.014,0.126l0.014,0.126l0.056,0.252l0.056,0.112l0.07,0.112l0.07,0.098
		l0.084,0.098l0.098,0.07l0.112,0.057l0.112,0.041l0.126,0.029h0.14l0.112-0.015l0.126-0.042l0.098-0.057l0.112-0.084l0.098-0.084
		l0.07-0.14v-0.14l-0.07-0.099l-0.084-0.112l-0.056-0.111l-0.014-0.141l0.014-0.126l0.07-0.126l0.084-0.084l0.21-0.141l0.056-0.069
		v-0.099l-0.028-0.125l-0.042-0.127l-0.042-0.111l-0.042-0.127l-0.028-0.111l-0.042-0.127l-0.042-0.111l-0.042-0.127l-0.042-0.111
		l-0.056-0.112l-0.042-0.112l-0.042-0.125l-0.042-0.113l-0.042-0.125l-0.042-0.113l-0.042-0.125l-0.042-0.112l-0.042-0.14
		l-0.056-0.168l-0.042-0.169l-0.042-0.126l-0.028-0.126l-0.014-0.112l-0.014-0.126l-0.028-0.084l-0.084,0.028l-0.196,0.195
		l-0.084,0.099l-0.14,0.196l-0.07,0.111l-0.07,0.099l-0.154,0.28l-0.084,0.154l-0.056,0.125l-0.07,0.099l-0.056,0.112l-0.056,0.098
		l-0.056,0.112l-0.084,0.183l-0.084,0.154l-0.056,0.125l-0.126,0.225l-0.056,0.111l-0.056,0.127l-0.084,0.154l-0.112,0.125
		l-0.126,0.029l-0.14-0.07l-0.07-0.112l0.014-0.126l0.028-0.127l0.112-0.224l0.07-0.126l0.042-0.084l0.07-0.126l0.056-0.126
		l0.042-0.112l0.168-0.336l0.07-0.112l0.056-0.126l0.084-0.154l0.098-0.153l0.07-0.127l0.07-0.111l0.056-0.112l0.07-0.126
		l0.056-0.07l0.07-0.126l0.07-0.099l0.336-0.392l0.168-0.183l0.084-0.098l0.098-0.098l0.098-0.084l0.224-0.141l0.126-0.057
		l0.14-0.041l0.126-0.028l0.112-0.015l0.126,0.015l0.126,0.028l0.112,0.07l0.084,0.098l0.042,0.111v0.127l-0.028,0.125l-0.056,0.113
		l-0.07,0.111l-0.028,0.112l-0.014,0.126l0.028,0.168l0.042,0.168l0.028,0.141l0.07,0.182l0.07,0.225l0.084,0.225l0.154,0.392
		l0.056,0.126l0.056,0.168l0.084,0.154l0.056,0.126l0.042,0.112l0.042,0.126l0.126,0.336l0.042,0.126l0.028,0.182l0.028,0.225
		l0.028,0.182l0.014,0.141v0.35l0.014,0.113l0.042,0.069l0.112,0.028h0.126l0.252-0.028l0.252-0.084l0.112-0.042l0.224-0.141
		l0.098-0.084l0.196-0.182l0.182-0.182l0.07-0.099l0.28-0.448l0.056-0.111l0.056-0.127l0.042-0.111l0.07-0.112l0.126-0.085
		l0.168,0.043l0.126,0.14v0.14l-0.042,0.127L-38.594,14.306z"/>
	<path fill="#8C8B8B" d="M-29.733,14.306l-0.056,0.127l-0.056,0.111l-0.07,0.112l-0.056,0.112l-0.07,0.126l-0.07,0.112l-0.07,0.098
		l-0.336,0.393l-0.098,0.098l-0.098,0.084l-0.098,0.07l-0.112,0.084l-0.098,0.07l-0.126,0.056l-0.112,0.056l-0.126,0.043
		l-0.098,0.027l-0.126,0.028l-0.168,0.028l-0.14,0.014l-0.098,0.014h-0.14l-0.126-0.014h-0.112l-0.084,0.042l-0.07,0.084
		l-0.07,0.099l-0.098,0.098l-0.126,0.111l-0.14,0.113l-0.126,0.084l-0.154,0.084l-0.14,0.084l-0.126,0.056l-0.182,0.042
		l-0.224,0.042l-0.238,0.015l-0.182,0.014h-0.14l-0.14-0.014l-0.126-0.043l-0.098-0.042l-0.126-0.056l-0.126-0.07l-0.21-0.154
		l-0.098-0.084l-0.098-0.098l-0.21-0.336l-0.042-0.127l-0.084-0.378l-0.014-0.14V15.33l0.028-0.141l0.084-0.154l0.168-0.14
		l0.21-0.056l0.168,0.014l0.084,0.084l0.014,0.111v0.127l-0.014,0.126l0.014,0.126l0.056,0.252L-35,15.792l0.07,0.112l0.07,0.098
		l0.084,0.098l0.098,0.07l0.112,0.057l0.112,0.041l0.126,0.029h0.14l0.112-0.015l0.126-0.042l0.098-0.057l0.112-0.084l0.098-0.084
		l0.07-0.14v-0.14l-0.07-0.099l-0.084-0.112l-0.056-0.111l-0.014-0.141l0.014-0.126l0.07-0.126l0.084-0.084l0.21-0.141l0.056-0.069
		v-0.099l-0.028-0.125l-0.042-0.127l-0.042-0.111l-0.042-0.127l-0.028-0.111l-0.042-0.127l-0.042-0.111l-0.042-0.127l-0.042-0.111
		l-0.056-0.112l-0.042-0.112l-0.042-0.125l-0.042-0.113l-0.042-0.125l-0.042-0.113l-0.042-0.125l-0.042-0.112l-0.042-0.14
		l-0.056-0.168l-0.042-0.169l-0.042-0.126l-0.028-0.126l-0.014-0.112l-0.014-0.126l-0.028-0.084l-0.084,0.028l-0.196,0.195
		l-0.084,0.099l-0.14,0.196l-0.07,0.111l-0.07,0.099l-0.154,0.28l-0.084,0.154l-0.056,0.125l-0.07,0.099l-0.056,0.112l-0.056,0.098
		l-0.056,0.112l-0.084,0.183l-0.084,0.154l-0.056,0.125l-0.126,0.225l-0.056,0.111l-0.056,0.127l-0.084,0.154l-0.112,0.125
		l-0.126,0.029l-0.14-0.07l-0.07-0.112l0.014-0.126l0.028-0.127l0.112-0.224l0.07-0.126l0.042-0.084l0.07-0.126l0.056-0.126
		l0.042-0.112l0.168-0.336l0.07-0.112l0.056-0.126l0.084-0.154l0.098-0.153l0.07-0.127l0.07-0.111l0.056-0.112l0.07-0.126
		l0.056-0.07l0.07-0.126l0.07-0.099l0.336-0.392l0.168-0.183l0.084-0.098l0.098-0.098l0.098-0.084l0.224-0.141l0.126-0.057
		l0.14-0.041l0.126-0.028l0.112-0.015l0.126,0.015l0.126,0.028l0.112,0.07l0.084,0.098l0.042,0.111v0.127l-0.028,0.125l-0.056,0.113
		l-0.07,0.111l-0.028,0.112l-0.014,0.126l0.028,0.168l0.042,0.168l0.028,0.141l0.07,0.182l0.07,0.225l0.084,0.225l0.154,0.392
		l0.056,0.126l0.056,0.168l0.084,0.154l0.056,0.126l0.042,0.112l0.042,0.126l0.126,0.336l0.042,0.126l0.028,0.182l0.028,0.225
		l0.028,0.182l0.014,0.141v0.35l0.014,0.113l0.042,0.069l0.112,0.028h0.126l0.252-0.028l0.252-0.084l0.112-0.042l0.224-0.141
		l0.098-0.084l0.196-0.182l0.182-0.182l0.07-0.099l0.28-0.448l0.056-0.111l0.056-0.127l0.042-0.111l0.07-0.112l0.126-0.085
		l0.168,0.043l0.126,0.14v0.14l-0.042,0.127L-29.733,14.306z"/>
	<path fill="#8C8B8B" d="M-26.29,16.324l-0.196,0.168l-0.224,0.141l-0.112,0.056l-0.224,0.14l-0.112,0.057l-0.252,0.084l-0.14,0.042
		l-0.252,0.042l-0.084,0.027l-0.14,0.029l-0.112,0.014h-0.126l-0.154,0.014h-0.126l-0.252-0.027l-0.154-0.043l-0.126-0.042
		l-0.098-0.042l-0.126-0.042l-0.112-0.056l-0.224-0.141l-0.098-0.084l-0.168-0.195l-0.07-0.113l-0.056-0.111l-0.07-0.112
		l-0.084-0.252l-0.056-0.252l-0.028-0.253l-0.014-0.14l0.014-0.126v-0.393l0.028-0.125l0.028-0.113l0.028-0.125l0.042-0.252
		l0.028-0.141l0.028-0.126l0.042-0.112l0.042-0.126l0.056-0.126l0.056-0.112l0.042-0.126l0.07-0.168l0.084-0.168l0.07-0.112
		l0.084-0.112l0.07-0.098l0.084-0.098l0.14-0.225l0.084-0.098l0.182-0.183l0.196-0.168l0.098-0.069l0.112-0.085l0.126-0.084
		l0.154-0.099l0.154-0.084l0.112-0.055l0.14-0.057l0.084-0.028l0.154-0.056l0.084-0.028l0.14-0.042l0.126-0.027l0.14-0.015
		l0.126-0.015h0.322l0.224,0.029l0.182,0.027l0.126,0.028l0.126,0.042l0.112,0.056l0.252,0.154l0.154,0.084l0.098,0.084l0.07,0.084
		l0.084,0.099l0.084,0.111l0.168,0.309l0.042,0.126l0.014,0.126l0.014,0.112l0.056,0.252v0.49l-0.028,0.168l-0.014,0.154
		l-0.014,0.14l-0.084,0.42l-0.056,0.197l-0.042,0.14l-0.056,0.14l-0.056,0.154l-0.042,0.127l-0.084,0.153l-0.126,0.253l-0.07,0.153
		l0.014,0.099l0.112,0.014h0.084l0.154-0.014l0.098-0.015l0.126-0.028l0.14-0.056l0.098-0.056l0.224-0.141l0.098-0.084l0.182-0.182
		l0.168-0.196l0.07-0.099l0.07-0.111l0.07-0.098l0.112-0.225l0.126-0.238l0.042-0.084l0.084-0.126l0.126-0.07l0.168,0.028
		l0.112,0.126l0.014,0.153l-0.042,0.127l-0.168,0.336l-0.07,0.098l-0.14,0.225l-0.056,0.111l-0.07,0.099l-0.084,0.112l-0.07,0.098
		l-0.084,0.084l-0.182,0.196l-0.084,0.084l-0.098,0.084l-0.098,0.07l-0.112,0.084l-0.098,0.056l-0.224,0.112l-0.126,0.056
		l-0.112,0.028l-0.504,0.056l-0.154-0.014l-0.126-0.014l-0.112-0.028l-0.112-0.014l-0.098,0.042l-0.098,0.07L-26.29,16.324z
		 M-29.063,14.797l-0.014,0.168l0.014,0.141l0.014,0.182l0.028,0.225l0.056,0.225l0.098,0.209l0.098,0.141l0.112,0.098l0.154,0.07
		l0.21,0.057h0.182l0.14-0.014l0.14-0.029l0.126-0.055l0.112-0.057l0.126-0.07l0.112-0.07l0.098-0.084l0.112-0.084l0.056-0.098
		v-0.084l-0.056-0.098l-0.07-0.113l-0.028-0.125l0.028-0.168l0.056-0.168l0.098-0.084l0.112-0.07l0.126-0.015l0.126,0.028
		l0.098,0.027l0.084-0.014l0.056-0.084l0.042-0.111l0.168-0.505l0.084-0.378l0.028-0.182l0.042-0.238l0.028-0.477l-0.014-0.225
		l-0.056-0.238l-0.084-0.209l-0.098-0.141l-0.112-0.084l-0.168-0.07l-0.21-0.042l-0.182-0.015h-0.14l-0.112,0.029l-0.126,0.041
		l-0.14,0.084l-0.112,0.07l-0.126,0.084l-0.14,0.112l-0.098,0.084l-0.098,0.099l-0.07,0.098l-0.084,0.098l-0.07,0.112l-0.14,0.196
		l-0.07,0.111l-0.28,0.561l-0.042,0.127l-0.028,0.111l-0.084,0.252l-0.028,0.112l-0.042,0.126l-0.014,0.127v0.125L-29.063,14.797z"
		/>
	<path fill="#8C8B8B" d="M-17.049,17.109l-0.126-0.029l-0.126-0.041l-0.112-0.057l-0.112-0.084l-0.168-0.195l-0.07-0.113
		l-0.042-0.125l-0.014-0.127l-0.014-0.14l0.028-0.253l0.014-0.139l0.028-0.253l0.056-0.252l0.028-0.099l0.028-0.125l0.042-0.154
		l0.028-0.112l0.042-0.126l0.028-0.127l0.042-0.125l0.028-0.127l0.042-0.168l0.056-0.182l0.028-0.126l0.042-0.126l0.028-0.127
		l0.042-0.125l0.028-0.112l0.056-0.253l0.014-0.125l0.084-0.379l0.014-0.126l0.014-0.14l-0.014-0.127l-0.056-0.111l-0.084-0.084
		l-0.112-0.028l-0.14-0.015l-0.126,0.029l-0.112,0.041l-0.336,0.211l-0.112,0.084l-0.196,0.168l-0.084,0.098l-0.098,0.084
		l-0.084,0.098l-0.084,0.113l-0.07,0.111l-0.07,0.098l-0.07,0.113l-0.084,0.098l-0.07,0.111l-0.056,0.113l-0.056,0.125l-0.126,0.225
		l-0.042,0.111l-0.084,0.253l-0.028,0.126l-0.056,0.168l-0.042,0.168l-0.042,0.141l-0.042,0.168l-0.056,0.168l-0.042,0.141
		l-0.084,0.336l-0.014,0.14l-0.042,0.183l-0.056,0.224l-0.056,0.183l-0.042,0.125l-0.028,0.112l-0.042,0.126l-0.056,0.112
		l-0.084,0.084l-0.126,0.056l-0.126,0.028l-0.14,0.015l-0.14-0.015h-0.14l-0.126-0.028l-0.112-0.056l-0.07-0.084l0.014-0.126
		l0.014-0.141l0.028-0.168l0.042-0.168l0.056-0.14l0.042-0.183l0.07-0.224l0.056-0.224l0.042-0.183l0.028-0.14l0.084-0.337
		l0.084-0.378l0.042-0.112l0.042-0.126l0.042-0.168l0.028-0.168l0.042-0.141l0.028-0.111l0.084-0.295l0.042-0.168l0.042-0.14
		l0.028-0.183l0.042-0.224v-0.238l-0.014-0.183l-0.084-0.111l-0.14-0.07l-0.168-0.027l-0.126,0.027l-0.168,0.07l-0.14,0.084
		l-0.098,0.098l-0.196,0.168l-0.126,0.112l-0.126,0.126l-0.084,0.098l-0.07,0.099l-0.056,0.112l-0.084,0.126l-0.056,0.069
		l-0.098,0.154l-0.098,0.141l-0.084,0.126l-0.098,0.153l-0.182,0.365l-0.056,0.126l-0.042,0.126l-0.028,0.126l-0.084,0.252
		l-0.028,0.126l-0.028,0.141l-0.084,0.378l-0.042,0.126l-0.056,0.252l-0.042,0.127l-0.028,0.14l-0.042,0.14l-0.028,0.127
		l-0.028,0.098l-0.028,0.126l-0.042,0.126l-0.042,0.141l-0.098,0.125l-0.196,0.099l-0.238,0.014l-0.224-0.014l-0.224-0.084
		l-0.14-0.14l-0.028-0.169l0.028-0.126l0.056-0.141l0.028-0.084l0.042-0.14l0.028-0.126l0.042-0.182l0.042-0.168l0.028-0.127
		l0.084-0.252l0.028-0.111l0.042-0.127l0.028-0.125l0.042-0.113l0.028-0.125l0.042-0.127l0.042-0.182l0.042-0.168l0.028-0.127
		l0.084-0.252l0.042-0.182l0.042-0.168l0.042-0.126l0.028-0.126l0.014-0.127l0.042-0.125l0.028-0.127l0.056-0.168l0.056-0.182
		l0.056-0.252l0.028-0.112l0.14-0.63l0.042-0.113l0.056-0.125l0.098-0.07l0.14-0.042l0.14-0.028l0.28,0.028l0.14,0.028l0.126,0.056
		l0.112,0.084l0.056,0.099l-0.014,0.125l-0.042,0.141l-0.042,0.126l-0.028,0.126l-0.042,0.126l-0.028,0.14l-0.042,0.127
		l-0.056,0.252l-0.014,0.084l0.056-0.027l0.07-0.127l0.084-0.111l0.07-0.113l0.084-0.098l0.07-0.111l0.084-0.099l0.098-0.126
		l0.084-0.084l0.07-0.084l0.196-0.168l0.224-0.154l0.098-0.07l0.112-0.07l0.126-0.056l0.112-0.042l0.14-0.042l0.14-0.015h0.238
		l0.126,0.015l0.126,0.028l0.112,0.042l0.112,0.056l0.098,0.07l0.084,0.084l0.084,0.098l0.112,0.225l0.042,0.111l0.042,0.127
		l0.014,0.126v0.126l-0.014,0.168l-0.014,0.182l-0.014,0.099h0.014l0.056-0.07l0.084-0.112l0.084-0.098l0.154-0.196l0.098-0.112
		l0.056-0.07l0.182-0.209l0.084-0.099l0.098-0.069l0.21-0.168l0.112-0.084l0.098-0.07l0.112-0.057l0.126-0.056l0.126-0.028
		l0.168-0.027l0.238-0.015l0.098-0.015h0.126l0.126,0.029l0.168,0.041l0.168,0.07l0.126,0.084l0.084,0.084l0.07,0.112l0.056,0.112
		l0.028,0.111l0.042,0.127l0.014,0.125l0.014,0.113v0.252l-0.014,0.126l-0.014,0.14l-0.056,0.252l-0.042,0.183l-0.21,0.673
		l-0.056,0.182l-0.042,0.126l-0.028,0.183l-0.042,0.153l-0.042,0.14l-0.056,0.168l-0.042,0.169l-0.042,0.14l-0.07,0.336
		l-0.028,0.141l-0.028,0.182l-0.028,0.238l0.014,0.225l0.042,0.168l0.084,0.084l0.14-0.014l0.112-0.028l0.098-0.056l0.112-0.057
		l0.112-0.084l0.098-0.07l0.196-0.195l0.07-0.099l0.168-0.224l0.07-0.07l0.084-0.111l0.49-0.785l0.056-0.126l0.126-0.253
		l0.042-0.069l0.084-0.126l0.056-0.112l0.126-0.069l0.168,0.027l0.112,0.141v0.14l-0.056,0.126l-0.07,0.126l-0.042,0.112
		l-0.056,0.098l-0.126,0.252l-0.098,0.168l-0.084,0.141l-0.07,0.112l-0.07,0.099l-0.21,0.336l-0.07,0.098l-0.14,0.21l-0.084,0.112
		l-0.154,0.195l-0.182,0.183l-0.084,0.099l-0.084,0.084l-0.196,0.168l-0.112,0.07l-0.336,0.168l-0.126,0.041l-0.112,0.029
		l-0.14,0.014h-0.28L-17.049,17.109z"/>
	<path fill="#8C8B8B" d="M-7.823,17.109l-0.126-0.029l-0.126-0.041l-0.112-0.057l-0.112-0.084l-0.168-0.195l-0.07-0.113
		l-0.042-0.125l-0.014-0.127l-0.014-0.14l0.028-0.253l0.014-0.139l0.028-0.253l0.056-0.252l0.028-0.099l0.028-0.125l0.042-0.154
		l0.028-0.112l0.042-0.126l0.028-0.127l0.042-0.125l0.028-0.127l0.042-0.168l0.056-0.182l0.028-0.126l0.042-0.126l0.028-0.127
		l0.042-0.125l0.028-0.112l0.056-0.253l0.014-0.125l0.084-0.379l0.014-0.126l0.014-0.14l-0.014-0.127l-0.056-0.111l-0.084-0.084
		l-0.112-0.028l-0.14-0.015l-0.126,0.029l-0.112,0.041l-0.336,0.211l-0.112,0.084l-0.196,0.168l-0.084,0.098l-0.098,0.084
		l-0.084,0.098l-0.084,0.113l-0.07,0.111l-0.07,0.098l-0.07,0.113L-9.7,13.299l-0.07,0.111l-0.056,0.113l-0.056,0.125l-0.126,0.225
		l-0.042,0.111l-0.084,0.253l-0.028,0.126l-0.056,0.168l-0.042,0.168l-0.042,0.141l-0.042,0.168l-0.056,0.168l-0.042,0.141
		l-0.084,0.336l-0.014,0.14l-0.042,0.183l-0.056,0.224l-0.056,0.183l-0.042,0.125l-0.028,0.112l-0.042,0.126l-0.056,0.112
		l-0.084,0.084l-0.126,0.056l-0.126,0.028l-0.14,0.015l-0.14-0.015h-0.14l-0.126-0.028l-0.112-0.056l-0.07-0.084l0.014-0.126
		l0.014-0.141l0.028-0.168l0.042-0.168l0.056-0.14l0.042-0.183l0.07-0.224l0.056-0.224l0.042-0.183l0.028-0.14l0.084-0.337
		l0.084-0.378l0.042-0.112l0.042-0.126l0.042-0.168l0.028-0.168l0.042-0.141l0.028-0.111l0.084-0.295l0.042-0.168l0.042-0.14
		l0.028-0.183l0.042-0.224v-0.238l-0.014-0.183l-0.084-0.111l-0.14-0.07l-0.168-0.027l-0.126,0.027l-0.168,0.07l-0.14,0.084
		l-0.098,0.098l-0.196,0.168l-0.126,0.112l-0.126,0.126l-0.084,0.098l-0.07,0.099l-0.056,0.112l-0.084,0.126l-0.056,0.069
		l-0.098,0.154l-0.098,0.141l-0.084,0.126l-0.098,0.153l-0.182,0.365l-0.056,0.126l-0.042,0.126l-0.028,0.126l-0.084,0.252
		l-0.028,0.126l-0.028,0.141l-0.084,0.378l-0.042,0.126l-0.056,0.252l-0.042,0.127l-0.028,0.14l-0.042,0.14l-0.028,0.127
		l-0.028,0.098l-0.028,0.126l-0.042,0.126l-0.042,0.141l-0.098,0.125l-0.196,0.099l-0.238,0.014l-0.224-0.014l-0.224-0.084
		l-0.14-0.14l-0.028-0.169l0.028-0.126l0.056-0.141l0.028-0.084l0.042-0.14l0.028-0.126l0.042-0.182l0.042-0.168l0.028-0.127
		l0.084-0.252l0.028-0.111l0.042-0.127l0.028-0.125l0.042-0.113l0.028-0.125l0.042-0.127l0.042-0.182l0.042-0.168l0.028-0.127
		l0.084-0.252l0.042-0.182l0.042-0.168l0.042-0.126l0.028-0.126l0.014-0.127l0.042-0.125l0.028-0.127L-14,12.668l0.056-0.182
		l0.056-0.252l0.028-0.112l0.14-0.63l0.042-0.113l0.056-0.125l0.098-0.07l0.14-0.042l0.14-0.028l0.28,0.028l0.14,0.028l0.126,0.056
		l0.112,0.084l0.056,0.099l-0.014,0.125l-0.042,0.141l-0.042,0.126l-0.028,0.126l-0.042,0.126l-0.028,0.14l-0.042,0.127
		l-0.056,0.252l-0.014,0.084l0.056-0.027l0.07-0.127l0.084-0.111l0.07-0.113l0.084-0.098l0.07-0.111l0.084-0.099l0.098-0.126
		l0.084-0.084l0.07-0.084l0.196-0.168l0.224-0.154l0.098-0.07l0.112-0.07l0.126-0.056l0.112-0.042l0.14-0.042l0.14-0.015h0.238
		l0.126,0.015l0.126,0.028l0.112,0.042l0.112,0.056l0.098,0.07l0.084,0.084l0.084,0.098l0.112,0.225l0.042,0.111l0.042,0.127
		l0.014,0.126v0.126l-0.014,0.168l-0.014,0.182l-0.014,0.099h0.014l0.056-0.07l0.084-0.112l0.084-0.098l0.154-0.196l0.098-0.112
		l0.056-0.07l0.182-0.209l0.084-0.099l0.098-0.069l0.21-0.168l0.112-0.084l0.098-0.07l0.112-0.057l0.126-0.056l0.126-0.028
		l0.168-0.027l0.238-0.015l0.098-0.015h0.126l0.126,0.029l0.168,0.041l0.168,0.07l0.126,0.084l0.084,0.084l0.07,0.112l0.056,0.112
		l0.028,0.111l0.042,0.127l0.014,0.125l0.014,0.113v0.252l-0.014,0.126l-0.014,0.14l-0.056,0.252l-0.042,0.183l-0.21,0.673
		l-0.056,0.182l-0.042,0.126l-0.028,0.183l-0.042,0.153l-0.042,0.14l-0.056,0.168l-0.042,0.169l-0.042,0.14l-0.07,0.336
		l-0.028,0.141l-0.028,0.182l-0.028,0.238l0.014,0.225l0.042,0.168l0.084,0.084l0.14-0.014l0.112-0.028l0.098-0.056l0.112-0.057
		l0.112-0.084l0.098-0.07l0.196-0.195l0.07-0.099l0.168-0.224l0.07-0.07l0.084-0.111l0.49-0.785l0.056-0.126l0.126-0.253
		l0.042-0.069l0.084-0.126l0.056-0.112l0.126-0.069l0.168,0.027l0.112,0.141v0.14l-0.056,0.126l-0.07,0.126l-0.042,0.112
		l-0.056,0.098l-0.126,0.252l-0.098,0.168l-0.084,0.141l-0.07,0.112l-0.07,0.099l-0.21,0.336l-0.07,0.098l-0.14,0.21l-0.084,0.112
		l-0.154,0.195L-6.24,16.45l-0.084,0.099l-0.084,0.084l-0.196,0.168l-0.112,0.07l-0.336,0.168l-0.126,0.041l-0.112,0.029
		l-0.14,0.014h-0.28L-7.823,17.109z"/>
	<path fill="#8C8B8B" d="M-0.698,13.621l-0.07,0.098l-0.168,0.196l-0.196,0.168l-0.098,0.069l-0.126,0.07l-0.084,0.028l-0.14,0.084
		l-0.084,0.042l-0.126,0.057l-0.14,0.041l-0.126,0.043l-0.126,0.014l-0.14,0.027l-0.154,0.015l-0.168,0.028l-0.126,0.014h-0.126
		l-0.252-0.027l-0.252-0.015l-0.126-0.015l-0.378-0.084h-0.098l-0.07,0.057l-0.028,0.098v0.127l-0.014,0.14v0.238l0.014,0.14
		l0.028,0.112l0.084,0.252l0.14,0.224l0.084,0.099l0.084,0.084l0.224,0.14l0.14,0.043l0.126,0.041l0.098,0.015l0.126,0.028
		l0.126,0.014h0.14l0.126-0.014l0.364-0.07l0.126-0.027l0.126-0.043l0.112-0.042l0.238-0.098l0.224-0.112l0.196-0.154l0.098-0.07
		l0.098-0.084l0.196-0.182l0.168-0.196l0.07-0.098l0.084-0.112l0.14-0.196l0.07-0.112l0.056-0.111l0.07-0.112l0.056-0.112
		l0.07-0.098l0.056-0.112L0.1,14.041l0.056-0.112l0.07-0.112l0.098-0.07H0.45l0.126,0.085l0.07,0.126l-0.014,0.126l-0.056,0.126
		l-0.07,0.154l-0.084,0.154l-0.07,0.154l-0.084,0.153l-0.084,0.14l-0.14,0.225l-0.042,0.084L-0.082,15.4l-0.14,0.195l-0.084,0.098
		l-0.084,0.084l-0.084,0.099l-0.098,0.112l-0.042,0.056l-0.098,0.112l-0.084,0.098l-0.196,0.168l-0.14,0.112l-0.126,0.112
		l-0.224,0.141l-0.351,0.153l-0.112,0.042l-0.126,0.042l-0.182,0.028l-0.168,0.042l-0.294,0.028l-0.182,0.014l-0.154,0.014h-0.126
		l-0.504-0.056l-0.112-0.028l-0.126-0.042l-0.126-0.056l-0.112-0.057l-0.224-0.125l-0.112-0.057l-0.098-0.084l-0.098-0.098
		l-0.056-0.07l-0.098-0.112l-0.084-0.099l-0.07-0.111l-0.056-0.098l-0.056-0.127l-0.042-0.111l-0.042-0.127l-0.028-0.125
		l-0.028-0.113l-0.028-0.125l-0.042-0.379v-0.266l0.014-0.127v-0.125l0.084-0.379l0.042-0.111l0.028-0.127l0.042-0.125l0.028-0.127
		l0.042-0.126l0.056-0.153l0.07-0.168l0.07-0.127l0.084-0.154l0.098-0.14l0.056-0.126l0.07-0.098l0.084-0.099l0.21-0.224l0.21-0.211
		l0.112-0.098l0.126-0.098l0.14-0.099l0.126-0.098l0.14-0.085l0.14-0.069l0.126-0.056l0.182-0.084l0.294-0.099l0.252-0.056
		l0.182-0.028h0.308l0.182,0.028l0.224,0.042l0.182,0.042l0.126,0.042l0.126,0.056l0.112,0.057l0.084,0.056l0.196,0.168l0.084,0.099
		l0.084,0.14l0.07,0.168l0.042,0.126l0.028,0.127l0.014,0.125v0.168l-0.014,0.183l-0.014,0.14l-0.042,0.168l-0.056,0.168
		l-0.056,0.141l-0.042,0.07l-0.07,0.126L-0.698,13.621z M-2.407,11.939l-0.196,0.084l-0.168,0.084l-0.112,0.07l-0.196,0.168
		l-0.126,0.127l-0.112,0.125l-0.098,0.113l-0.098,0.153l-0.098,0.14l-0.07,0.127l-0.084,0.154l-0.056,0.168l-0.056,0.125
		l-0.042,0.113l-0.014,0.098l0.07,0.07l0.182,0.041l0.28,0.015l0.14,0.014h0.392l0.14-0.028l0.126-0.027l0.14-0.057l0.084-0.027
		l0.14-0.07l0.098-0.07l0.098-0.084l0.098-0.098l0.098-0.084l0.084-0.112l0.07-0.099l0.056-0.111l0.07-0.126l0.084-0.253l0.028-0.14
		l0.014-0.126l-0.014-0.141L-1.51,12.15l-0.084-0.099l-0.112-0.084l-0.126-0.056l-0.126-0.028l-0.126-0.015l-0.14,0.029
		L-2.407,11.939z"/>
	<path fill="#8C8B8B" d="M6.821,14.306l-0.056,0.127l-0.057,0.111l-0.07,0.112l-0.056,0.112l-0.069,0.126l-0.07,0.112l-0.07,0.098
		l-0.336,0.393l-0.098,0.098l-0.099,0.084l-0.099,0.07l-0.111,0.084l-0.098,0.07L5.406,15.96l-0.111,0.056l-0.127,0.043L5.07,16.086
		l-0.126,0.028l-0.168,0.028l-0.14,0.014L4.538,16.17h-0.14l-0.127-0.014H4.16l-0.084,0.042l-0.07,0.084l-0.07,0.099l-0.098,0.098
		L3.711,16.59l-0.14,0.113l-0.126,0.084l-0.154,0.084l-0.14,0.084L3.025,17.01l-0.182,0.042l-0.224,0.042l-0.238,0.015l-0.182,0.014
		h-0.14l-0.14-0.014l-0.126-0.043l-0.098-0.042l-0.126-0.056l-0.126-0.07l-0.21-0.154L1.134,16.66l-0.098-0.098l-0.21-0.336
		l-0.042-0.127l-0.084-0.378l-0.014-0.14V15.33l0.028-0.141l0.084-0.154l0.168-0.14l0.21-0.056l0.168,0.014l0.084,0.084l0.014,0.111
		v0.127l-0.014,0.126l0.014,0.126l0.056,0.252l0.056,0.112l0.07,0.112l0.07,0.098l0.084,0.098l0.098,0.07l0.112,0.057L2.1,16.267
		l0.126,0.029h0.14l0.112-0.015l0.126-0.042l0.098-0.057l0.112-0.084l0.098-0.084l0.07-0.14v-0.14l-0.07-0.099l-0.084-0.112
		l-0.056-0.111l-0.014-0.141l0.014-0.126l0.07-0.126l0.084-0.084l0.21-0.141l0.056-0.069v-0.099l-0.028-0.125l-0.042-0.127
		l-0.042-0.111l-0.042-0.127l-0.028-0.111L2.969,13.9l-0.042-0.111l-0.042-0.127l-0.042-0.111l-0.056-0.112l-0.042-0.112
		l-0.042-0.125l-0.042-0.113l-0.042-0.125l-0.042-0.113l-0.042-0.125l-0.042-0.112l-0.042-0.14l-0.056-0.168l-0.042-0.169
		L2.31,12.01l-0.028-0.126l-0.014-0.112l-0.014-0.126l-0.028-0.084L2.142,11.59l-0.196,0.195l-0.084,0.099l-0.14,0.196l-0.07,0.111
		l-0.07,0.099l-0.154,0.28l-0.084,0.154l-0.056,0.125l-0.07,0.099L1.162,13.06l-0.056,0.098L1.05,13.27l-0.084,0.183l-0.084,0.154
		l-0.056,0.125l-0.126,0.225l-0.056,0.111l-0.056,0.127l-0.084,0.154l-0.112,0.125l-0.126,0.029l-0.14-0.07l-0.07-0.112l0.014-0.126
		l0.028-0.127l0.112-0.224l0.07-0.126l0.042-0.084l0.07-0.126l0.056-0.126L0.49,13.27l0.168-0.336l0.07-0.112l0.056-0.126
		l0.084-0.154l0.098-0.153l0.07-0.127l0.07-0.111l0.056-0.112l0.07-0.126l0.056-0.07l0.07-0.126l0.07-0.099l0.336-0.392l0.168-0.183
		l0.084-0.098l0.098-0.098l0.098-0.084l0.224-0.141l0.126-0.057l0.14-0.041l0.126-0.028l0.112-0.015l0.126,0.015l0.126,0.028
		l0.112,0.07l0.084,0.098l0.042,0.111v0.127l-0.028,0.125L3.347,11.17l-0.07,0.111l-0.028,0.112l-0.014,0.126l0.028,0.168
		l0.042,0.168l0.028,0.141l0.07,0.182l0.07,0.225l0.084,0.225l0.154,0.392l0.056,0.126l0.056,0.168l0.084,0.154l0.056,0.126
		l0.042,0.112l0.042,0.126l0.126,0.336l0.042,0.126l0.028,0.182l0.027,0.225L4.3,14.881l0.015,0.141v0.35l0.014,0.113l0.042,0.069
		l0.112,0.028h0.125l0.253-0.028l0.252-0.084l0.112-0.042l0.224-0.141l0.099-0.084l0.195-0.182l0.183-0.182l0.069-0.099l0.281-0.448
		l0.056-0.111l0.056-0.127l0.043-0.111l0.069-0.112l0.126-0.085l0.168,0.043l0.127,0.14v0.14l-0.043,0.127L6.821,14.306z"/>
	<path fill="#8C8B8B" d="M13.273,10.245l-0.07,0.126l-0.111,0.225l-0.07,0.153l-0.099,0.154l-0.069,0.099l-0.07,0.111l-0.07,0.098
		l-0.07,0.127l-0.056,0.084l-0.07,0.111l-0.098,0.127l-0.126,0.14l-0.127,0.126l-0.055,0.07l-0.099,0.111L11.83,12.29l-0.084,0.099
		l-0.154,0.168l-0.098,0.084l-0.111,0.111l-0.154,0.112l-0.211,0.183l-0.111,0.07l-0.309,0.195L10.5,13.354l-0.112,0.07
		l-0.154,0.126l-0.098,0.126l-0.056,0.112l-0.028,0.154l-0.042,0.252v0.084L9.981,14.42l-0.028,0.125l-0.014,0.141v0.294
		l-0.014,0.183v0.279l0.027,0.154l0.014,0.084l0.029,0.141l0.056,0.125l0.056,0.113l0.084,0.098l0.112,0.07l0.112,0.041l0.14,0.029
		h0.238l0.112-0.015l0.126-0.042l0.168-0.07l0.153-0.084l0.113-0.084l0.14-0.111l0.126-0.127l0.168-0.154l0.112-0.098l0.084-0.111
		l0.056-0.07l0.084-0.112l0.057-0.099l0.084-0.125l0.056-0.07l0.084-0.127l0.112-0.209l0.07-0.113l0.084-0.125l0.07-0.127
		l0.069-0.14l0.126-0.183l0.141-0.111l0.182,0.027l0.112,0.141v0.141l-0.042,0.125l-0.057,0.112l-0.069,0.112l-0.056,0.126
		l-0.057,0.112l-0.042,0.111l-0.069,0.113l-0.057,0.098l-0.07,0.111l-0.084,0.127l-0.027,0.07l-0.07,0.125l-0.084,0.112
		l-0.141,0.196l-0.098,0.126l-0.057,0.056l-0.098,0.127l-0.084,0.098l-0.111,0.141l-0.127,0.111l-0.098,0.098l-0.084,0.07
		l-0.098,0.084l-0.127,0.07l-0.111,0.057l-0.127,0.055l-0.111,0.057l-0.112,0.042l-0.126,0.056l-0.168,0.057l-0.28,0.057
		l-0.169,0.014l-0.153-0.014h-0.084l-0.14-0.015l-0.127-0.028l-0.111-0.042l-0.127-0.042l-0.111-0.056l-0.112-0.07l-0.099-0.084
		l-0.084-0.084L9.14,16.59l-0.056-0.111l-0.056-0.127L8.986,16.24l-0.027-0.126l-0.042-0.126l-0.015-0.127l-0.027-0.14v-0.084
		l-0.028-0.153l-0.014-0.127v-0.126l0.014-0.126l0.015-0.141v-0.084l0.014-0.182l0.042-0.309l0.014-0.168v-0.125l0.028-0.127
		l0.027-0.14l0.099-0.462l0.042-0.168l0.042-0.253l0.028-0.069l0.042-0.168l0.028-0.084l0.056-0.211l0.042-0.182l0.027-0.127
		l0.043-0.168l0.056-0.195l0.015-0.099l0.055-0.196l0.057-0.182l0.042-0.098l0.056-0.183l0.057-0.168l0.056-0.126l0.14-0.364
		l0.029-0.084l0.084-0.196l0.098-0.225l0.07-0.168l0.056-0.125l0.042-0.085l0.07-0.126l0.098-0.238l0.07-0.14l0.07-0.126
		l0.084-0.127l0.111-0.182l0.183-0.252l0.084-0.111l0.183-0.183l0.055-0.07l0.099-0.099l0.099-0.069l0.224-0.154l0.154-0.099
		l0.153-0.069l0.127-0.042l0.126-0.027h0.252l0.14,0.027l0.084,0.014l0.141,0.043l0.111,0.055l0.197,0.169l0.069,0.112l0.099,0.14
		l0.07,0.168l0.055,0.126l0.057,0.168l0.028,0.183v0.252l-0.028,0.378l-0.057,0.252l-0.041,0.113L13.483,9.67l-0.112,0.337
		l-0.056,0.112L13.273,10.245z M10.948,10.636l-0.196,0.589l-0.028,0.126l-0.042,0.126l-0.056,0.183l-0.099,0.293l-0.041,0.141
		l-0.015,0.084l-0.042,0.141l-0.042,0.126l-0.028,0.14l0.028,0.084l0.084-0.056l0.14-0.112l0.574-0.574l0.07-0.098l0.07-0.112
		l0.084-0.126l0.057-0.057l0.084-0.125l0.098-0.127l0.098-0.14l0.099-0.154l0.069-0.112l0.057-0.098l0.07-0.098l0.111-0.225
		l0.057-0.141l0.041-0.084l0.057-0.14l0.057-0.126l0.027-0.126l0.042-0.126l0.042-0.154l0.057-0.154l0.041-0.154l0.057-0.154
		l0.014-0.14l0.014-0.126V8.564l-0.027-0.112L12.587,8.34l-0.099-0.07l-0.111-0.027L12.25,8.269l-0.125,0.098l-0.099,0.085
		l-0.069,0.084l-0.07,0.099l-0.07,0.111l-0.141,0.21l-0.069,0.126l-0.056,0.127L11.494,9.32l-0.056,0.126l-0.056,0.112l-0.057,0.126
		l-0.042,0.112l-0.056,0.154l-0.084,0.209l-0.057,0.127L10.948,10.636z"/>
	<path fill="#8C8B8B" d="M19.911,14.335l-0.028,0.07l-0.07,0.14l-0.069,0.098l-0.056,0.113l-0.057,0.125l-0.057,0.113l-0.139,0.224
		l-0.07,0.099l-0.07,0.111l-0.057,0.111l-0.069,0.113l-0.085,0.098L19,15.861l-0.084,0.099l-0.153,0.196l-0.085,0.098l-0.084,0.084
		l-0.392,0.336l-0.112,0.07l-0.126,0.07l-0.153,0.07l-0.168,0.07l-0.127,0.041l-0.126,0.028h-0.14l-0.168-0.014l-0.168-0.042
		l-0.127-0.042l-0.098-0.07l-0.098-0.084l-0.099-0.14l-0.099-0.154l-0.041-0.127l-0.043-0.168l-0.014-0.182v-0.141l0.014-0.182
		l0.015-0.168l-0.042-0.027l-0.07,0.098l-0.14,0.225l-0.14,0.195l-0.084,0.098l-0.07,0.099l-0.084,0.099l-0.07,0.098l-0.098,0.084
		l-0.084,0.084l-0.099,0.084l-0.099,0.07l-0.111,0.07l-0.154,0.098l-0.21,0.098l-0.224,0.07l-0.183,0.042l-0.253,0.028l-0.14-0.014
		l-0.168-0.029l-0.168-0.041l-0.126-0.043l-0.112-0.041l-0.099-0.07l-0.195-0.168l-0.07-0.099l-0.07-0.112l-0.084-0.154
		l-0.084-0.209l-0.041-0.183l-0.015-0.14l-0.028-0.183l-0.014-0.224v-0.183l0.014-0.14l0.014-0.182l0.029-0.169l0.041-0.14
		l0.043-0.168l0.041-0.183l0.043-0.126l0.056-0.111l0.042-0.127l0.336-0.672l0.07-0.112l0.07-0.099l0.069-0.111l0.14-0.196
		l0.085-0.099l0.182-0.209l0.056-0.057l0.099-0.111l0.196-0.169l0.126-0.126l0.153-0.111l0.197-0.154l0.111-0.07l0.098-0.07
		l0.127-0.057l0.168-0.069l0.154-0.084l0.14-0.07l0.168-0.056l0.169-0.042l0.14-0.042l0.351-0.028l0.125-0.015h0.168l0.281,0.015
		l0.322,0.028l0.308,0.056l0.126,0.028l0.154,0.042l0.561,0.252l0.098,0.084l0.098,0.07l0.099,0.084l0.084,0.099l0.028,0.153
		l-0.057,0.196l-0.154,0.168l-0.154,0.098l-0.111,0.015l-0.112-0.042l-0.112-0.084l-0.126-0.07l-0.112-0.07l-0.098-0.042
		l-0.111-0.056l-0.127-0.057l-0.111-0.027l-0.238-0.057l-0.141-0.041l-0.14-0.029h-0.28l-0.098,0.015l-0.141,0.015l-0.182,0.041
		l-0.351,0.127l-0.14,0.069l-0.141,0.085l-0.098,0.069l-0.112,0.069l-0.099,0.07l-0.098,0.084l-0.111,0.099l-0.057,0.056
		l-0.098,0.112l-0.084,0.099l-0.07,0.098l-0.168,0.195l-0.07,0.099l-0.07,0.112l-0.168,0.336l-0.07,0.112l-0.084,0.252l-0.056,0.126
		l-0.056,0.112l-0.084,0.378l-0.043,0.141l-0.041,0.378v0.392l0.014,0.141l0.042,0.126l0.056,0.112l0.07,0.111l0.084,0.084
		l0.126,0.057l0.168,0.027l0.183-0.014l0.126-0.041l0.224-0.113l0.196-0.168l0.084-0.084l0.099-0.084l0.084-0.098l0.07-0.098
		l0.084-0.099l0.069-0.099l0.154-0.209l0.069-0.099l0.211-0.336l0.084-0.154l0.098-0.183l0.057-0.084l0.168-0.363l0.056-0.127
		l0.028-0.098l0.056-0.126l0.042-0.112l0.043-0.126l0.055-0.153l0.084-0.281l0.057-0.154l0.042-0.139l0.084-0.127l0.14-0.07
		l0.127-0.027l0.126,0.014l0.126,0.028l0.225,0.112l0.111,0.07l0.057,0.084l0.014,0.125l-0.042,0.112l-0.028,0.126l-0.042,0.127
		l-0.056,0.252l-0.043,0.125l-0.027,0.113l-0.084,0.252l-0.027,0.14l-0.015,0.084l-0.042,0.168l-0.028,0.126l-0.056,0.238
		l-0.042,0.168l-0.028,0.141l-0.027,0.154l-0.043,0.209l-0.041,0.238l-0.015,0.211l0.015,0.182l0.069,0.112l0.14,0.069l0.211,0.015
		l0.168-0.056l0.126-0.07l0.196-0.141l0.098-0.098l0.168-0.182l0.168-0.197l0.141-0.195l0.07-0.112l0.084-0.112l0.027-0.084
		l0.225-0.336l0.056-0.111l0.07-0.113l0.28-0.56l0.126-0.07l0.168,0.028l0.112,0.14l0.014,0.14l-0.057,0.127L19.911,14.335z
		 M16.661,9.041l0.085,0.098l0.098,0.125l0.041,0.085l0.113,0.14l0.041,0.057l0.099,0.125l0.069,0.099l0.057,0.126v0.112
		l-0.07,0.084l-0.111,0.069l-0.141,0.029l-0.126,0.014l-0.126-0.028l-0.112-0.069l-0.183-0.211l-0.125-0.126l-0.141-0.126
		l-0.195-0.225l-0.141-0.154l-0.295-0.336L15.4,8.773V8.662l0.098-0.084l0.127-0.07l0.126-0.042l0.168-0.042l0.14-0.014l0.112,0.027
		l0.112,0.07l0.084,0.098l0.07,0.099L16.661,9.041z"/>
	<path fill="#8C8B8B" d="M30.228,13.928v0.169l-0.041,0.125l-0.043,0.099l-0.056,0.112l-0.084,0.125l-0.042,0.07l-0.084,0.112
		l-0.07,0.126l-0.056,0.112l-0.14,0.196l-0.099,0.098l-0.084,0.098l-0.224,0.225l-0.113,0.084l-0.125,0.084l-0.127,0.098
		l-0.098,0.057l-0.111,0.07l-0.127,0.042l-0.154,0.056l-0.182,0.042l-0.141,0.042l-0.125,0.014h-0.141l-0.126-0.014l-0.126-0.027
		l-0.126-0.043h-0.112l-0.112,0.028l-0.098,0.07l-0.084,0.099l-0.099,0.098l-0.098,0.084l-0.098,0.07l-0.112,0.084l-0.126,0.084
		l-0.07,0.041l-0.126,0.07l-0.112,0.057l-0.126,0.056l-0.14,0.042l-0.084,0.028l-0.141,0.042l-0.252,0.057h-0.49l-0.154-0.015
		l-0.126-0.015L24.5,17.052l-0.112-0.042l-0.126-0.056l-0.111-0.057l-0.127-0.057l-0.098-0.069l-0.098-0.084l-0.084-0.099
		l-0.084-0.041l-0.07,0.014l-0.043,0.084l-0.041,0.111l-0.057,0.253l-0.014,0.112l-0.028,0.125l-0.042,0.141l-0.084,0.336
		l-0.014,0.127l-0.028,0.125l-0.015,0.127l-0.041,0.125l-0.112,0.505l-0.015,0.126l-0.027,0.182l-0.028,0.169l-0.042,0.14
		l-0.027,0.182L22.903,19.7l-0.028,0.14l-0.014,0.127l-0.043,0.111l-0.014,0.126l-0.027,0.14l-0.028,0.183l-0.028,0.169
		l-0.027,0.125l-0.043,0.112l-0.098,0.07l-0.098,0.042l-0.127,0.014l-0.153,0.014H22.02l-0.084-0.014l-0.154-0.027l-0.126-0.057
		l-0.07-0.098l-0.014-0.112l0.014-0.126l0.028-0.126l0.015-0.112l0.111-0.504l0.014-0.127l0.028-0.125l0.042-0.168l0.028-0.183
		l0.028-0.14l0.027-0.183l0.028-0.168l0.14-0.63l0.015-0.127l0.014-0.111l0.028-0.127l0.042-0.14l0.084-0.337l0.028-0.139
		l0.027-0.169l0.043-0.183l0.041-0.125l0.028-0.127l0.028-0.111l0.084-0.379l0.042-0.111l0.042-0.127l0.056-0.237l0.042-0.126
		l0.028-0.182l0.042-0.169l0.027-0.126l0.085-0.252l0.084-0.336l0.042-0.141l0.056-0.252l0.042-0.182l0.043-0.168l0.027-0.127
		l0.042-0.126l0.042-0.112l0.042-0.125l0.028-0.113l0.042-0.125l0.028-0.127l0.041-0.111l0.043-0.127l0.027-0.125l0.014-0.113
		l0.057-0.224l0.042-0.14l0.042-0.127l0.042-0.111l0.028-0.126l0.111-0.337l0.099-0.084l0.168-0.056l0.224-0.014l0.225,0.014
		l0.21,0.084l0.126,0.154v0.21l-0.042,0.182l-0.028,0.084l0.028,0.015l0.07-0.056l0.126-0.112l0.141-0.099l0.111-0.098l0.141-0.084
		l0.154-0.098l0.125-0.057l0.168-0.07l0.197-0.069l0.182-0.056l0.141-0.015l0.168-0.015h0.182l0.141,0.015l0.125,0.028l0.112,0.042
		l0.112,0.028l0.112,0.041l0.14,0.057l0.112,0.057l0.099,0.069l0.084,0.099l0.168,0.168l0.084,0.125l0.056,0.113l0.042,0.111
		l0.042,0.126l0.028,0.126l0.027,0.112l0.057,0.253v0.377l0.014,0.127l-0.014,0.125v0.127l-0.014,0.126l-0.015,0.14l-0.014,0.127
		l-0.028,0.111l-0.027,0.127l-0.07,0.237l-0.043,0.126l-0.027,0.127l-0.028,0.111l-0.042,0.126l-0.056,0.126l-0.154,0.336
		l-0.153,0.309l0.027,0.057l0.098,0.027l0.127-0.014l0.14-0.014h0.099l0.125-0.029l0.141-0.055l0.111-0.057l0.238-0.126l0.196-0.168
		l0.085-0.099l0.098-0.084l0.07-0.098l0.084-0.112l0.069-0.112l0.126-0.209l0.084-0.127l0.057-0.111l0.056-0.127l0.112-0.224
		l0.126-0.07l0.183,0.028L30.228,13.928z M26.867,14.504l0.042-0.113l0.084-0.252l0.028-0.111l0.027-0.127l0.043-0.125l0.027-0.113
		l0.028-0.125l0.056-0.505l-0.014-0.14v-0.127l-0.014-0.125l-0.028-0.112l-0.028-0.126l-0.07-0.127l-0.111-0.125l-0.127-0.112
		l-0.125-0.056l-0.127-0.029l-0.111-0.014h-0.141l-0.126,0.014l-0.098,0.029l-0.14,0.027l-0.281,0.112l-0.084,0.028l-0.252,0.125
		l-0.126,0.07l-0.099,0.084L24.99,12.5l-0.098,0.084l-0.196,0.196l-0.085,0.112l-0.069,0.154l-0.07,0.209l-0.056,0.183l-0.098,0.294
		L24.275,13.9l-0.027,0.141l-0.043,0.182l-0.055,0.211l-0.043,0.182l-0.041,0.126l-0.029,0.183l-0.056,0.224l-0.069,0.224
		l-0.043,0.183l-0.014,0.126l0.028,0.112l0.069,0.084l0.099,0.099l0.099,0.084l0.098,0.069l0.126,0.056l0.183,0.057l0.168,0.042
		l0.252,0.028l0.14-0.014l0.126-0.015l0.126-0.028l0.112-0.027l0.126-0.028l0.112-0.056l0.21-0.141l0.112-0.07l0.098-0.084
		l0.057-0.098l-0.028-0.141l-0.07-0.14l-0.042-0.126l-0.014-0.112l0.027-0.126l0.057-0.098l0.098-0.098l0.168-0.057l0.196-0.042
		l0.14-0.056l0.084-0.127L26.867,14.504z"/>
	<path fill="#8C8B8B" d="M33.461,16.324l-0.196,0.168l-0.224,0.141l-0.112,0.056l-0.224,0.14l-0.113,0.057l-0.252,0.084L32.2,17.01
		l-0.253,0.042l-0.084,0.027l-0.14,0.029l-0.112,0.014h-0.125l-0.154,0.014h-0.127l-0.252-0.027l-0.154-0.043l-0.125-0.042
		l-0.099-0.042l-0.126-0.042l-0.112-0.056l-0.224-0.141l-0.098-0.084l-0.169-0.195l-0.069-0.113L29.72,16.24l-0.07-0.112
		l-0.084-0.252l-0.056-0.252l-0.028-0.253l-0.014-0.14l0.014-0.126v-0.393l0.028-0.125l0.028-0.113l0.027-0.125l0.043-0.252
		l0.027-0.141l0.027-0.126l0.043-0.112l0.042-0.126l0.056-0.126l0.057-0.112l0.041-0.126l0.07-0.168l0.084-0.168l0.07-0.112
		l0.084-0.112l0.07-0.098l0.084-0.098l0.141-0.225l0.084-0.098l0.182-0.183l0.195-0.168l0.099-0.069l0.112-0.085l0.126-0.084
		l0.153-0.099l0.154-0.084l0.112-0.055l0.14-0.057l0.084-0.028l0.154-0.056l0.084-0.028l0.141-0.042l0.126-0.027l0.14-0.015
		l0.127-0.015h0.322l0.224,0.029l0.183,0.027l0.125,0.028l0.127,0.042l0.111,0.056l0.252,0.154l0.154,0.084l0.099,0.084l0.069,0.084
		l0.084,0.099l0.084,0.111l0.169,0.309l0.042,0.126l0.014,0.126l0.014,0.112l0.057,0.252v0.49l-0.028,0.168l-0.014,0.154
		l-0.015,0.14l-0.084,0.42l-0.056,0.197l-0.042,0.14l-0.057,0.14l-0.055,0.154l-0.043,0.127l-0.084,0.153l-0.126,0.253l-0.069,0.153
		l0.014,0.099l0.111,0.014h0.084l0.154-0.014l0.098-0.015l0.127-0.028l0.14-0.056l0.099-0.056l0.224-0.141l0.099-0.084l0.182-0.182
		l0.168-0.196l0.07-0.099l0.07-0.111l0.07-0.098l0.111-0.225l0.126-0.238l0.042-0.084l0.084-0.126l0.127-0.07l0.168,0.028
		l0.111,0.126l0.014,0.153l-0.041,0.127l-0.168,0.336l-0.07,0.098l-0.141,0.225l-0.056,0.111l-0.07,0.099l-0.084,0.112l-0.069,0.098
		l-0.084,0.084l-0.183,0.196l-0.084,0.084l-0.099,0.084l-0.098,0.07l-0.112,0.084l-0.098,0.056l-0.224,0.112l-0.127,0.056
		l-0.111,0.028l-0.505,0.056l-0.153-0.014l-0.127-0.014l-0.111-0.028l-0.113-0.014l-0.098,0.042l-0.098,0.07L33.461,16.324z
		 M30.687,14.797l-0.014,0.168l0.014,0.141l0.014,0.182l0.028,0.225l0.056,0.225l0.098,0.209l0.099,0.141l0.112,0.098l0.154,0.07
		l0.209,0.057h0.183l0.14-0.014l0.141-0.029l0.126-0.055l0.112-0.057l0.126-0.07l0.112-0.07l0.098-0.084l0.112-0.084l0.056-0.098
		v-0.084l-0.056-0.098l-0.07-0.113l-0.028-0.125l0.028-0.168l0.056-0.168l0.099-0.084l0.112-0.07l0.126-0.015l0.126,0.028
		l0.098,0.027l0.084-0.014l0.057-0.084l0.042-0.111l0.168-0.505l0.084-0.378l0.028-0.182l0.041-0.238l0.029-0.477l-0.015-0.225
		l-0.056-0.238l-0.084-0.209l-0.099-0.141l-0.112-0.084l-0.168-0.07l-0.21-0.042l-0.183-0.015h-0.14l-0.112,0.029l-0.125,0.041
		l-0.141,0.084l-0.112,0.07l-0.126,0.084l-0.141,0.112l-0.098,0.084l-0.098,0.099l-0.07,0.098l-0.084,0.098l-0.07,0.112l-0.14,0.196
		l-0.07,0.111l-0.28,0.561l-0.041,0.127l-0.029,0.111l-0.084,0.252l-0.027,0.112l-0.042,0.126l-0.015,0.127v0.125L30.687,14.797z"/>
	<path fill="#8C8B8B" d="M40.642,11.17l0.141-0.015l0.141,0.015l0.125,0.014l0.141,0.027l0.112,0.043l0.112,0.07l0.056,0.111
		l-0.042,0.168l-0.098,0.295l-0.113,0.224l-0.041,0.126l-0.028,0.111l-0.042,0.127l-0.057,0.111l-0.056,0.252l-0.042,0.127
		l-0.042,0.111l-0.042,0.141l-0.042,0.126l-0.028,0.099l-0.041,0.125l-0.029,0.113l-0.027,0.125l-0.042,0.127l-0.084,0.378
		l-0.042,0.168l-0.042,0.183l-0.042,0.14l-0.028,0.168l-0.028,0.183l-0.014,0.14v0.126l-0.014,0.126v0.126l0.027,0.252l0.043,0.127
		l0.069,0.098l0.099,0.057l0.125,0.014l0.113-0.014l0.125-0.057l0.197-0.141l0.098-0.098l0.098-0.084l0.098-0.07l0.168-0.195
		l0.141-0.197l0.084-0.111l0.084-0.098l0.057-0.099l0.056-0.126l0.069-0.112l0.07-0.126l0.057-0.07l0.084-0.14l0.07-0.14l0.07-0.154
		l0.125-0.252l0.084-0.112l0.112-0.07l0.169,0.042l0.111,0.141l0.014,0.14l-0.041,0.126l-0.057,0.112l-0.07,0.099l-0.07,0.111
		l-0.111,0.225l-0.042,0.125l-0.056,0.113l-0.141,0.224l-0.07,0.099l-0.14,0.223l-0.07,0.099l-0.168,0.196l-0.07,0.098l-0.084,0.112
		l-0.168,0.196l-0.183,0.168l-0.084,0.084L41.26,16.66l-0.225,0.141l-0.336,0.168l-0.252,0.056l-0.127,0.015l-0.168-0.015
		l-0.168-0.042l-0.14-0.056l-0.126-0.112l-0.112-0.126l-0.084-0.126l-0.069-0.168l-0.057-0.225l-0.027-0.225l-0.015-0.182
		l0.015-0.14l0.027-0.14l-0.014-0.057l-0.043,0.07l-0.069,0.111l-0.14,0.197l-0.084,0.111l-0.253,0.295l-0.267,0.266l-0.084,0.098
		l-0.098,0.07l-0.111,0.07l-0.225,0.125l-0.225,0.113l-0.125,0.041l-0.505,0.113l-0.126,0.014l-0.126-0.014l-0.14-0.015
		l-0.127-0.015l-0.098-0.027l-0.126-0.042l-0.112-0.056l-0.196-0.141l-0.098-0.098l-0.14-0.196l-0.057-0.126l-0.042-0.112
		l-0.015-0.126l-0.014-0.141v-0.378l0.014-0.126l0.029-0.126l0.014-0.126l0.027-0.126l0.014-0.126l0.029-0.168l0.041-0.183
		l0.057-0.252l0.042-0.126l0.042-0.168l0.098-0.295l0.043-0.111l0.027-0.127l0.042-0.125l0.015-0.112l0.195-0.589l0.042-0.14
		l0.154-0.462l0.042-0.112l0.042-0.126l0.07-0.168l0.042-0.168l0.042-0.127l0.056-0.111l0.098-0.07l0.127-0.057l0.126-0.027
		l0.14-0.028l0.127,0.015l0.125,0.027l0.127,0.042l0.111,0.056l0.057,0.084v0.113l-0.028,0.125l-0.042,0.127l-0.028,0.111
		l-0.084,0.252l-0.056,0.141l-0.014,0.084L37.687,12.5l-0.042,0.07l-0.042,0.154l-0.042,0.125l-0.042,0.183l-0.057,0.183
		l-0.027,0.084l-0.057,0.154l-0.041,0.125l-0.028,0.127l-0.042,0.111l-0.057,0.252l-0.014,0.127l-0.027,0.126l-0.043,0.126
		l-0.056,0.252l-0.028,0.112l-0.042,0.126l-0.028,0.126l-0.041,0.183l-0.028,0.224v0.252l0.028,0.224l0.111,0.197l0.182,0.111
		l0.169,0.028l0.252-0.056l0.112-0.057l0.098-0.042l0.112-0.056l0.126-0.07l0.112-0.07l0.196-0.168l0.084-0.084l0.252-0.294
		l0.07-0.099l0.084-0.125l0.084-0.141l0.098-0.154l0.112-0.225l0.069-0.125l0.057-0.112l0.057-0.126l0.041-0.112l0.043-0.126
		l0.041-0.112l0.043-0.126l0.041-0.111l0.057-0.127l0.042-0.111l0.056-0.252l0.043-0.127l0.041-0.111l0.043-0.127l0.041-0.111
		l0.057-0.127l0.027-0.125l0.028-0.113l0.084-0.252l0.042-0.111l0.084-0.252l0.028-0.112l0.042-0.126l0.057-0.112l0.069-0.112
		l0.099-0.07L40.642,11.17z"/>
	<path fill="#8C8B8B" d="M43.399,10.834l-0.126-0.379l-0.014-0.126v-0.126l0.027-0.127l0.057-0.125l0.07-0.099l0.084-0.098
		l0.098-0.085l0.111-0.055l0.127-0.029h0.126l0.126,0.029l0.111,0.069l0.084,0.084l0.057,0.112l0.042,0.126v0.378l-0.028,0.141
		v0.111l0.028,0.112l0.07,0.099l0.098,0.098l0.099,0.084l0.098,0.112l0.154,0.183l0.098,0.084l0.182,0.182l0.099,0.111l0.056,0.07
		l0.099,0.112l0.098,0.084l0.085,0.099l0.14,0.224l0.042,0.126l0.042,0.168l0.042,0.182l-0.014,0.127l-0.043,0.126l-0.056,0.112
		l-0.084,0.098l-0.14,0.225l-0.084,0.098l-0.07,0.111l-0.07,0.099l-0.084,0.112l-0.07,0.111l-0.084,0.113l-0.07,0.111l-0.238,0.477
		l-0.041,0.126l-0.043,0.112l-0.027,0.125l-0.028,0.141l-0.028,0.127l-0.014,0.125v0.141l0.057,0.279l0.07,0.113l0.069,0.125
		l0.099,0.084l0.111,0.07l0.141,0.028h0.266l0.126-0.028l0.126-0.041l0.127-0.057l0.098-0.07l0.21-0.141l0.112-0.084l0.098-0.084
		l0.084-0.084l0.084-0.111l0.252-0.295l0.211-0.336L47,14.853l0.069-0.126l0.07-0.112l0.056-0.111l0.07-0.127l0.042-0.084
		l0.084-0.154l0.056-0.111l0.043-0.112l0.056-0.112l0.126-0.07l0.182,0.043l0.127,0.14v0.153l-0.043,0.127l-0.111,0.238
		l-0.057,0.111l-0.07,0.112l-0.111,0.224l-0.141,0.225l-0.07,0.126l-0.056,0.07l-0.069,0.126l-0.141,0.225l-0.168,0.224
		l-0.112,0.154l-0.098,0.14l-0.169,0.196l-0.098,0.084l-0.168,0.168l-0.111,0.085l-0.127,0.084l-0.224,0.111l-0.126,0.057
		l-0.112,0.056l-0.126,0.042L45.36,17.08l-0.14,0.029h-0.322l-0.182-0.015l-0.281-0.056l-0.111-0.043l-0.141-0.069l-0.21-0.14
		l-0.099-0.084l-0.084-0.085l-0.084-0.112l-0.069-0.098l-0.056-0.126l-0.057-0.112l-0.027-0.126l-0.029-0.14l-0.027-0.127
		l-0.014-0.125v-0.127l0.056-0.504l0.042-0.126l0.042-0.112l0.056-0.126l0.07-0.153l0.084-0.154l0.07-0.127l0.098-0.154l0.099-0.14
		l0.069-0.126l0.084-0.154l0.113-0.154l0.084-0.111l0.111-0.196l0.154-0.224l0.07-0.154l0.041-0.211l-0.027-0.168l-0.141-0.224
		l-0.084-0.112l-0.224-0.252l-0.084-0.098l-0.112-0.084l-0.111,0.027l-0.057,0.127l-0.027,0.125l-0.043,0.127l-0.027,0.125
		l-0.028,0.113l-0.042,0.125l-0.126,0.336l-0.042,0.127l-0.042,0.111l-0.042,0.127l-0.07,0.168l-0.07,0.154l-0.056,0.125
		l-0.07,0.168L43.176,13.9l-0.07,0.141l-0.07,0.154l-0.084,0.154l-0.07,0.111l-0.084,0.07h-0.126l-0.112-0.07l-0.084-0.098
		l0.014-0.112l0.043-0.126l0.056-0.126l0.042-0.112l0.042-0.126l0.112-0.252l0.042-0.084l0.056-0.14l0.057-0.113l0.041-0.125
		l0.057-0.127l0.042-0.125l0.042-0.113l0.112-0.252l0.028-0.125l0.041-0.127l0.029-0.126l0.055-0.126l0.029-0.126l0.027-0.112
		l0.027-0.126l0.043-0.126l0.027-0.141V11.17l-0.027-0.113L43.399,10.834z"/>
	<path fill="#8C8B8B" d="M51.056,17.066l-0.141-0.056l-0.084-0.042l-0.125-0.07l-0.099-0.07L50.51,16.73l-0.168-0.196l-0.056-0.126
		l-0.042-0.111l-0.027-0.127l-0.029-0.14v-0.126l0.015-0.127v-0.14l0.015-0.14l0.027-0.168l0.027-0.183l0.029-0.153l0.084-0.337
		l0.027-0.126l0.042-0.126l0.015-0.112l0.027-0.126l0.042-0.126l0.042-0.168l0.057-0.168l0.056-0.252l0.042-0.127l0.042-0.111
		l0.056-0.112l0.043-0.112l0.041-0.126l0.057-0.252l0.056-0.154l0.042-0.126l0.057-0.126l0.056-0.154l0.042-0.126l0.042-0.111
		l0.028-0.127l0.042-0.111l0.042-0.127l0.056-0.111l0.084-0.07l0.126-0.057l0.127-0.041h0.266l0.141,0.027l0.111,0.042l0.112,0.056
		l0.069,0.084v0.127l-0.027,0.126L52.386,11.8l-0.069,0.153l-0.056,0.127l-0.043,0.111l-0.041,0.127l-0.043,0.111l-0.041,0.127
		l-0.057,0.182l-0.07,0.21l-0.056,0.183l-0.042,0.125l-0.042,0.183l-0.099,0.294l-0.041,0.183l-0.057,0.224l-0.042,0.183
		l-0.042,0.14l-0.084,0.336l-0.028,0.141l-0.028,0.182l-0.014,0.168l-0.014,0.141l-0.014,0.111v0.141l0.027,0.182l0.042,0.169
		l0.07,0.112l0.084,0.084l0.112,0.041l0.182,0.015l0.225-0.042l0.21-0.084l0.196-0.112l0.182-0.14l0.126-0.112l0.056-0.099
		l-0.014-0.154l-0.07-0.182l-0.027-0.182l0.042-0.127l0.069-0.098l0.113-0.084l0.168-0.027l0.195,0.014h0.141l0.084-0.084
		l0.168-0.309l0.07-0.111l0.056-0.112l0.042-0.126l0.042-0.112l0.056-0.14l0.028-0.084l0.056-0.141l0.07-0.168l0.098-0.295
		l0.029-0.125l0.027-0.112l0.057-0.253l0.041-0.111l0.028-0.126l0.042-0.126l0.014-0.112l0.015-0.126v-0.127l0.014-0.125
		l0.015-0.141l0.014-0.168l0.027-0.182l0.084-0.099l0.168-0.056l0.238-0.014l0.225,0.027l0.21,0.07l0.14,0.111l0.057,0.113
		l0.014,0.125l-0.027,0.252l-0.028,0.113l-0.015,0.125l-0.027,0.141l-0.027,0.126l-0.029,0.112l-0.027,0.126l-0.014,0.126
		l-0.028,0.126l-0.084,0.253l-0.028,0.139l-0.014,0.085l-0.042,0.14l-0.042,0.127l-0.043,0.139l-0.027,0.085l-0.057,0.14
		l-0.069,0.127l-0.042,0.084l-0.112,0.252l-0.056,0.111l-0.057,0.127l-0.07,0.125l-0.069,0.113l-0.056,0.084l-0.141,0.224
		l-0.056,0.099l-0.085,0.111l-0.027,0.084l0.084,0.057l0.182,0.014h0.183l0.126-0.028l0.154-0.028l0.126-0.056l0.126-0.069
		l0.154-0.084l0.098-0.07l0.351-0.351l0.069-0.099l0.07-0.111l0.07-0.098l0.07-0.113l0.084-0.153l0.07-0.154l0.069-0.126
		l0.085-0.154l0.139-0.126l0.169,0.028l0.112,0.154v0.182l-0.07,0.168l-0.168,0.336l-0.07,0.112l-0.057,0.099l-0.153,0.238
		l-0.042,0.069l-0.098,0.126L56.14,15.4l-0.308,0.308l-0.099,0.084l-0.153,0.084l-0.267,0.154l-0.111,0.056l-0.252,0.057
		l-0.141,0.014l-0.182,0.027l-0.154,0.015l-0.141-0.015l-0.126-0.014l-0.126-0.027l-0.168-0.028l-0.154,0.014l-0.098,0.056
		l-0.098,0.084l-0.084,0.084l-0.197,0.169l-0.153,0.098l-0.14,0.099l-0.127,0.084l-0.154,0.07l-0.168,0.069l-0.126,0.042
		l-0.112,0.042l-0.125,0.042l-0.183,0.028l-0.168,0.015l-0.14,0.014l-0.351-0.028h-0.14L51.056,17.066z"/>
	<path fill="#8C8B8B" d="M60.256,16.324l-0.195,0.168l-0.225,0.141l-0.111,0.056l-0.225,0.14l-0.112,0.057l-0.252,0.084l-0.14,0.042
		l-0.253,0.042l-0.084,0.027l-0.14,0.029l-0.112,0.014h-0.126l-0.154,0.014h-0.126l-0.252-0.027l-0.154-0.043l-0.126-0.042
		l-0.098-0.042l-0.127-0.042l-0.111-0.056l-0.225-0.141L56.81,16.66l-0.168-0.195l-0.07-0.113l-0.057-0.111l-0.069-0.112
		l-0.084-0.252l-0.056-0.252l-0.029-0.253l-0.014-0.14l0.014-0.126v-0.393l0.029-0.125l0.027-0.113l0.028-0.125l0.042-0.252
		l0.027-0.141l0.028-0.126l0.042-0.112l0.042-0.126l0.056-0.126l0.057-0.112l0.042-0.126l0.07-0.168l0.084-0.168l0.069-0.112
		l0.084-0.112l0.07-0.098l0.084-0.098l0.141-0.225l0.084-0.098l0.182-0.183l0.196-0.168l0.099-0.069l0.111-0.085l0.127-0.084
		l0.153-0.099l0.154-0.084l0.112-0.055l0.14-0.057l0.084-0.028l0.154-0.056l0.084-0.028l0.14-0.042l0.127-0.027l0.14-0.015
		l0.126-0.015h0.322l0.225,0.029l0.182,0.027l0.126,0.028l0.126,0.042l0.112,0.056l0.252,0.154l0.154,0.084l0.099,0.084l0.069,0.084
		l0.084,0.099l0.084,0.111l0.169,0.309l0.041,0.126l0.014,0.126l0.015,0.112l0.056,0.252v0.49l-0.027,0.168l-0.014,0.154
		l-0.015,0.14l-0.084,0.42l-0.056,0.197l-0.043,0.14l-0.056,0.14l-0.056,0.154l-0.042,0.127l-0.085,0.153l-0.125,0.253l-0.07,0.153
		l0.014,0.099l0.112,0.014h0.084l0.154-0.014l0.098-0.015l0.126-0.028l0.141-0.056l0.098-0.056l0.225-0.141l0.098-0.084l0.182-0.182
		l0.168-0.196l0.07-0.099l0.07-0.111l0.07-0.098l0.111-0.225l0.127-0.238l0.041-0.084l0.085-0.126l0.126-0.07l0.168,0.028
		l0.111,0.126l0.015,0.153l-0.042,0.127l-0.168,0.336l-0.07,0.098l-0.14,0.225l-0.056,0.111l-0.07,0.099l-0.084,0.112l-0.07,0.098
		l-0.084,0.084l-0.182,0.196l-0.084,0.084l-0.099,0.084l-0.099,0.07l-0.111,0.084l-0.098,0.056l-0.225,0.112l-0.127,0.056
		l-0.111,0.028l-0.504,0.056l-0.154-0.014l-0.127-0.014l-0.111-0.028l-0.112-0.014l-0.098,0.042l-0.099,0.07L60.256,16.324z
		 M57.482,14.797l-0.014,0.168l0.014,0.141l0.014,0.182l0.029,0.225l0.055,0.225l0.099,0.209l0.099,0.141l0.111,0.098l0.154,0.07
		l0.21,0.057h0.183l0.14-0.014l0.14-0.029l0.127-0.055l0.111-0.057l0.127-0.07l0.111-0.07l0.098-0.084l0.113-0.084l0.056-0.098
		v-0.084l-0.056-0.098l-0.07-0.113l-0.028-0.125l0.028-0.168l0.056-0.168l0.099-0.084l0.111-0.07l0.127-0.015l0.125,0.028
		l0.099,0.027l0.084-0.014l0.056-0.084l0.042-0.111l0.169-0.505l0.084-0.378l0.027-0.182l0.042-0.238l0.028-0.477l-0.014-0.225
		l-0.057-0.238l-0.084-0.209l-0.098-0.141l-0.112-0.084l-0.168-0.07l-0.21-0.042l-0.183-0.015h-0.14l-0.112,0.029l-0.126,0.041
		l-0.141,0.084l-0.111,0.07l-0.127,0.084l-0.14,0.112l-0.098,0.084l-0.099,0.099l-0.07,0.098l-0.084,0.098l-0.069,0.112l-0.14,0.196
		l-0.07,0.111l-0.28,0.561l-0.042,0.127l-0.028,0.111l-0.084,0.252l-0.028,0.112l-0.041,0.126l-0.015,0.127v0.125L57.482,14.797z"/>
	<path fill="#8C8B8B" d="M67.438,11.17l0.14-0.015l0.141,0.015l0.126,0.014l0.14,0.027l0.112,0.043l0.112,0.07l0.057,0.111
		l-0.043,0.168l-0.098,0.295l-0.112,0.224l-0.042,0.126l-0.027,0.111L67.9,12.486l-0.056,0.111l-0.056,0.252l-0.043,0.127
		l-0.041,0.111l-0.043,0.141l-0.041,0.126l-0.028,0.099l-0.042,0.125l-0.028,0.113l-0.028,0.125l-0.041,0.127l-0.084,0.378
		l-0.043,0.168l-0.041,0.183l-0.043,0.14l-0.027,0.168l-0.028,0.183l-0.015,0.14v0.126l-0.014,0.126v0.126l0.028,0.252l0.042,0.127
		l0.07,0.098l0.098,0.057l0.126,0.014l0.112-0.014l0.126-0.057l0.196-0.141l0.098-0.098l0.098-0.084l0.099-0.07l0.168-0.195
		l0.14-0.197l0.084-0.111l0.084-0.098l0.057-0.099l0.057-0.126l0.069-0.112l0.07-0.126l0.056-0.07l0.084-0.14l0.07-0.14l0.07-0.154
		l0.126-0.252l0.084-0.112l0.112-0.07l0.168,0.042l0.111,0.141l0.015,0.14l-0.042,0.126l-0.057,0.112l-0.069,0.099l-0.07,0.111
		l-0.112,0.225l-0.041,0.125l-0.057,0.113l-0.141,0.224l-0.069,0.099l-0.14,0.223l-0.07,0.099l-0.168,0.196l-0.07,0.098
		l-0.084,0.112l-0.168,0.196l-0.183,0.168l-0.084,0.084l-0.196,0.168l-0.225,0.141l-0.336,0.168l-0.252,0.056l-0.126,0.015
		l-0.168-0.015l-0.168-0.042l-0.14-0.056l-0.127-0.112l-0.111-0.126l-0.084-0.126l-0.07-0.168l-0.057-0.225l-0.027-0.225
		l-0.014-0.182l0.014-0.14l0.027-0.14l-0.014-0.057l-0.042,0.07l-0.069,0.111l-0.141,0.197l-0.084,0.111l-0.252,0.295l-0.267,0.266
		l-0.084,0.098l-0.099,0.07l-0.111,0.07l-0.225,0.125l-0.224,0.113l-0.126,0.041l-0.504,0.113l-0.127,0.014l-0.125-0.014
		l-0.141-0.015l-0.126-0.015l-0.099-0.027l-0.125-0.042l-0.113-0.056L62.9,16.814l-0.098-0.098l-0.141-0.196l-0.057-0.126
		l-0.041-0.112l-0.015-0.126l-0.014-0.141v-0.378l0.014-0.126l0.028-0.126l0.014-0.126l0.028-0.126l0.014-0.126l0.028-0.168
		l0.042-0.183l0.056-0.252l0.043-0.126l0.041-0.168l0.099-0.295l0.042-0.111l0.027-0.127l0.043-0.125l0.014-0.112l0.195-0.589
		l0.043-0.14l0.154-0.462l0.041-0.112l0.043-0.126l0.069-0.168l0.042-0.168l0.043-0.127l0.055-0.111l0.099-0.07l0.126-0.057
		l0.127-0.027l0.139-0.028l0.127,0.015l0.126,0.027l0.126,0.042l0.112,0.056l0.056,0.084v0.113l-0.027,0.125l-0.043,0.127
		l-0.027,0.111l-0.084,0.252l-0.057,0.141l-0.014,0.084L64.482,12.5l-0.041,0.07l-0.043,0.154l-0.041,0.125l-0.043,0.183
		l-0.056,0.183l-0.028,0.084l-0.056,0.154l-0.042,0.125l-0.027,0.127l-0.043,0.111l-0.056,0.252l-0.015,0.127l-0.027,0.126
		l-0.042,0.126l-0.056,0.252l-0.028,0.112l-0.042,0.126l-0.028,0.126l-0.042,0.183l-0.027,0.224v0.252l0.027,0.224l0.112,0.197
		l0.182,0.111l0.169,0.028l0.252-0.056l0.111-0.057l0.098-0.042l0.113-0.056l0.125-0.07l0.113-0.07l0.195-0.168l0.084-0.084
		l0.252-0.294l0.07-0.099l0.084-0.125l0.084-0.141l0.098-0.154l0.113-0.225l0.069-0.125l0.056-0.112l0.057-0.126l0.042-0.112
		l0.042-0.126l0.042-0.112l0.042-0.126l0.042-0.111l0.056-0.127l0.043-0.111l0.056-0.252l0.042-0.127l0.042-0.111l0.042-0.127
		l0.042-0.111l0.056-0.127l0.028-0.125l0.028-0.113l0.084-0.252l0.041-0.111l0.085-0.252l0.028-0.112l0.041-0.126l0.057-0.112
		l0.07-0.112l0.098-0.07L67.438,11.17z"/>
	<path fill="#8C8B8B" d="M76.078,14.306l-0.057,0.127l-0.057,0.111l-0.069,0.112l-0.056,0.112l-0.07,0.126l-0.07,0.112l-0.07,0.098
		l-0.336,0.393l-0.098,0.098l-0.098,0.084l-0.099,0.07l-0.112,0.084l-0.098,0.07l-0.127,0.056l-0.111,0.056l-0.126,0.043
		l-0.099,0.027l-0.125,0.028l-0.169,0.028l-0.14,0.014l-0.098,0.014h-0.141l-0.126-0.014h-0.112l-0.084,0.042l-0.07,0.084
		l-0.07,0.099l-0.098,0.098l-0.126,0.111l-0.14,0.113l-0.127,0.084l-0.153,0.084l-0.14,0.084l-0.127,0.056l-0.182,0.042
		l-0.225,0.042l-0.238,0.015l-0.182,0.014h-0.141l-0.14-0.014l-0.126-0.043l-0.098-0.042l-0.127-0.056l-0.125-0.07l-0.211-0.154
		L70.39,16.66l-0.098-0.098l-0.211-0.336l-0.041-0.127l-0.085-0.378l-0.014-0.14V15.33l0.028-0.141l0.084-0.154l0.168-0.14
		l0.21-0.056l0.168,0.014l0.084,0.084l0.015,0.111v0.127l-0.015,0.126l0.015,0.126l0.056,0.252l0.056,0.112l0.07,0.112l0.07,0.098
		l0.084,0.098l0.098,0.07l0.112,0.057l0.112,0.041l0.125,0.029h0.141l0.112-0.015l0.126-0.042l0.098-0.057l0.112-0.084l0.099-0.084
		l0.069-0.14v-0.14l-0.069-0.099l-0.084-0.112l-0.057-0.111l-0.014-0.141l0.014-0.126l0.07-0.126l0.084-0.084l0.21-0.141
		l0.056-0.069v-0.099l-0.027-0.125l-0.043-0.127l-0.041-0.111l-0.043-0.127l-0.027-0.111L72.225,13.9l-0.042-0.111l-0.042-0.127
		l-0.042-0.111l-0.057-0.112l-0.041-0.112l-0.043-0.125l-0.041-0.113l-0.043-0.125l-0.041-0.113l-0.043-0.125l-0.042-0.112
		l-0.042-0.14l-0.056-0.168l-0.042-0.169l-0.042-0.126l-0.028-0.126l-0.014-0.112l-0.014-0.126l-0.029-0.084l-0.084,0.028
		l-0.195,0.195l-0.084,0.099l-0.141,0.196l-0.07,0.111l-0.069,0.099l-0.154,0.28L70.6,12.724l-0.056,0.125l-0.07,0.099l-0.057,0.112
		l-0.056,0.098l-0.056,0.112l-0.084,0.183l-0.084,0.154l-0.057,0.125l-0.126,0.225L69.9,14.068l-0.057,0.127l-0.084,0.154
		l-0.111,0.125l-0.127,0.029l-0.14-0.07l-0.069-0.112l0.014-0.126l0.027-0.127l0.112-0.224l0.07-0.126l0.042-0.084l0.07-0.126
		l0.056-0.126l0.042-0.112l0.168-0.336l0.07-0.112l0.057-0.126l0.084-0.154l0.098-0.153l0.07-0.127l0.069-0.111l0.056-0.112
		l0.07-0.126l0.057-0.07l0.07-0.126l0.069-0.099l0.337-0.392l0.168-0.183l0.084-0.098l0.098-0.098l0.098-0.084l0.225-0.141
		l0.126-0.057l0.14-0.041l0.127-0.028l0.111-0.015l0.127,0.015l0.125,0.028l0.112,0.07l0.084,0.098l0.042,0.111v0.127l-0.027,0.125
		l-0.057,0.113l-0.07,0.111l-0.027,0.112l-0.014,0.126l0.027,0.168l0.042,0.168l0.028,0.141l0.07,0.182l0.07,0.225l0.084,0.225
		l0.153,0.392l0.056,0.126l0.057,0.168l0.084,0.154l0.057,0.126l0.041,0.112l0.043,0.126l0.125,0.336l0.043,0.126l0.027,0.182
		l0.028,0.225l0.028,0.182l0.014,0.141v0.35l0.014,0.113l0.043,0.069l0.111,0.028h0.126l0.253-0.028l0.252-0.084l0.111-0.042
		l0.225-0.141l0.098-0.084l0.196-0.182l0.183-0.182l0.069-0.099l0.28-0.448l0.057-0.111l0.056-0.127l0.042-0.111l0.07-0.112
		l0.125-0.085l0.169,0.043l0.126,0.14v0.14l-0.042,0.127L76.078,14.306z"/>
	<path fill="#8C8B8B" d="M85.205,14.335l-0.027,0.07l-0.07,0.14l-0.07,0.098l-0.056,0.113l-0.056,0.125l-0.057,0.113l-0.14,0.224
		l-0.07,0.099l-0.069,0.111l-0.057,0.111l-0.07,0.113l-0.084,0.098l-0.084,0.111l-0.084,0.099l-0.154,0.196l-0.084,0.098
		l-0.084,0.084l-0.393,0.336l-0.111,0.07l-0.127,0.07l-0.153,0.07l-0.168,0.07l-0.126,0.041l-0.127,0.028h-0.14l-0.168-0.014
		l-0.168-0.042l-0.126-0.042l-0.098-0.07l-0.099-0.084l-0.099-0.14l-0.098-0.154l-0.042-0.127l-0.042-0.168l-0.014-0.182v-0.141
		l0.014-0.182l0.014-0.168l-0.041-0.027l-0.07,0.098l-0.141,0.225l-0.14,0.195l-0.084,0.098l-0.07,0.099l-0.084,0.099l-0.069,0.098
		l-0.099,0.084l-0.084,0.084l-0.099,0.084l-0.098,0.07l-0.112,0.07l-0.153,0.098l-0.211,0.098l-0.224,0.07l-0.183,0.042
		l-0.252,0.028l-0.141-0.014l-0.168-0.029l-0.168-0.041l-0.125-0.043l-0.113-0.041l-0.098-0.07l-0.195-0.168l-0.07-0.099
		l-0.07-0.112l-0.084-0.154l-0.084-0.209l-0.042-0.183l-0.015-0.14l-0.027-0.183l-0.014-0.224v-0.183l0.014-0.14l0.014-0.182
		l0.028-0.169l0.042-0.14l0.042-0.168l0.042-0.183l0.042-0.126l0.056-0.111l0.043-0.127l0.336-0.672l0.07-0.112l0.069-0.099
		l0.07-0.111L79,12.696l0.084-0.099l0.182-0.209l0.057-0.057l0.098-0.111l0.197-0.169l0.125-0.126l0.154-0.111l0.196-0.154
		l0.112-0.07l0.098-0.07l0.126-0.057l0.169-0.069l0.153-0.084l0.14-0.07l0.168-0.056l0.169-0.042l0.14-0.042l0.351-0.028
		l0.126-0.015h0.168l0.28,0.015l0.322,0.028l0.308,0.056l0.127,0.028l0.154,0.042l0.56,0.252l0.099,0.084l0.098,0.07l0.098,0.084
		l0.084,0.099l0.028,0.153l-0.056,0.196l-0.154,0.168l-0.154,0.098l-0.111,0.015l-0.113-0.042l-0.111-0.084l-0.126-0.07l-0.112-0.07
		l-0.098-0.042L83.02,12.08l-0.126-0.057l-0.112-0.027l-0.238-0.057l-0.14-0.041l-0.141-0.029h-0.279l-0.099,0.015l-0.14,0.015
		l-0.183,0.041l-0.351,0.127l-0.14,0.069l-0.14,0.085l-0.099,0.069l-0.112,0.069l-0.098,0.07l-0.098,0.084l-0.112,0.099
		l-0.056,0.056L80.26,12.78l-0.084,0.099l-0.069,0.098l-0.169,0.195l-0.069,0.099l-0.07,0.112l-0.168,0.336l-0.07,0.112
		l-0.084,0.252l-0.057,0.126l-0.056,0.112l-0.084,0.378l-0.042,0.141l-0.042,0.378v0.392l0.015,0.141l0.041,0.126l0.057,0.112
		l0.07,0.111l0.084,0.084l0.125,0.057l0.169,0.027l0.182-0.014l0.126-0.041l0.225-0.113l0.195-0.168l0.084-0.084l0.099-0.084
		l0.084-0.098l0.07-0.098l0.084-0.099l0.069-0.099l0.154-0.209l0.07-0.099l0.211-0.336l0.084-0.154l0.098-0.183l0.056-0.084
		l0.169-0.363l0.055-0.127l0.029-0.098l0.055-0.126l0.043-0.112l0.042-0.126l0.056-0.153l0.084-0.281l0.057-0.154l0.041-0.139
		l0.084-0.127l0.141-0.07l0.126-0.027l0.126,0.014l0.127,0.028l0.224,0.112l0.112,0.07l0.056,0.084l0.015,0.125l-0.043,0.112
		l-0.027,0.126l-0.043,0.127l-0.056,0.252l-0.042,0.125l-0.027,0.113l-0.084,0.252l-0.028,0.14l-0.015,0.084l-0.041,0.168
		l-0.029,0.126l-0.055,0.238l-0.043,0.168l-0.027,0.141l-0.028,0.154l-0.042,0.209l-0.042,0.238l-0.015,0.211l0.015,0.182
		l0.069,0.112l0.141,0.069l0.21,0.015l0.169-0.056l0.125-0.07l0.196-0.141l0.099-0.098l0.168-0.182l0.168-0.197l0.141-0.195
		l0.069-0.112l0.084-0.112l0.028-0.084l0.225-0.336l0.055-0.111l0.07-0.113l0.28-0.56l0.126-0.07l0.168,0.028l0.112,0.14l0.015,0.14
		l-0.057,0.127L85.205,14.335z"/>
	<path fill="#8C8B8B" d="M88.115,13.957v0.154l-0.042,0.126l-0.112,0.224l-0.125,0.211l-0.07,0.125l-0.057,0.113l-0.084,0.125
		l-0.042,0.084l-0.069,0.127l-0.07,0.111l-0.07,0.098l-0.084,0.113l-0.07,0.098l-0.14,0.225l-0.253,0.293l-0.168,0.183l-0.098,0.099
		l-0.084,0.098l-0.098,0.084l-0.309,0.238l-0.098,0.07l-0.127,0.056l-0.125,0.042l-0.113,0.027l-0.252,0.057h-0.238l-0.153-0.014
		l-0.112-0.043l-0.126-0.041l-0.112-0.07l-0.098-0.084l-0.07-0.098l-0.07-0.113l-0.056-0.125l-0.028-0.113l-0.027-0.125
		l-0.014-0.127v-0.125l0.027-0.252l0.027-0.127l0.043-0.126l0.056-0.252l0.042-0.112l0.028-0.126l0.042-0.126l0.042-0.112
		l0.126-0.378l0.014-0.112l0.028-0.126l0.042-0.126l0.027-0.126l0.029-0.112l0.084-0.252l0.041-0.168l0.043-0.183l0.084-0.252
		l0.027-0.126l0.028-0.099l0.028-0.125l0.056-0.141l0.042-0.111l0.084-0.379l0.042-0.126l0.042-0.168l0.057-0.183l0.041-0.125
		l0.057-0.113l0.084-0.069l0.126-0.056l0.112-0.015l0.141,0.015l0.252,0.027l0.224,0.084l0.069,0.098v0.127l-0.027,0.126
		L86.518,11.8l-0.042,0.183l-0.084,0.252l-0.028,0.111l-0.028,0.127l-0.041,0.14l-0.043,0.168l-0.14,0.421l-0.028,0.125
		l-0.056,0.183l-0.099,0.294l-0.027,0.126l-0.028,0.112l-0.028,0.126l-0.098,0.238l-0.027,0.126l-0.099,0.35l-0.084,0.253
		L85.51,15.26l-0.042,0.182l-0.042,0.225l-0.027,0.238l0.027,0.21l0.112,0.153l0.153,0.043l0.127-0.014l0.126-0.057l0.099-0.07
		l0.111-0.084l0.463-0.462l0.084-0.099l0.069-0.098l0.084-0.111l0.14-0.225l0.085-0.098l0.056-0.084l0.07-0.113l0.084-0.125
		l0.057-0.127l0.111-0.238l0.168-0.336l0.07-0.111l0.126-0.07l0.183,0.027L88.115,13.957z M85.86,9.656l0.069-0.111l0.113-0.099
		l0.111-0.069l0.141-0.043l0.125-0.027h0.141l0.126,0.027l0.112,0.07l0.098,0.084l0.098,0.098l0.07,0.113l0.043,0.125l0.014,0.127
		v0.14l-0.042,0.126l-0.07,0.112l-0.084,0.112l-0.099,0.084l-0.111,0.084l-0.127,0.056l-0.139,0.028l-0.127-0.014l-0.14-0.028
		l-0.225-0.14l-0.084-0.099l-0.069-0.112l-0.028-0.126l-0.015-0.126l0.015-0.126l0.028-0.14L85.86,9.656z"/>
	<path fill="#8C8B8B" d="M88.436,12.472l0.098-0.099l0.169-0.196l0.293-0.252l0.099-0.07l0.112-0.084l0.098-0.07l0.112-0.056
		l0.126-0.056l0.21-0.112l0.126-0.069l0.252-0.084l0.112-0.043l0.253-0.056l0.125-0.015l0.141-0.014l0.252-0.027h0.322l0.182,0.027
		l0.154,0.028l0.098,0.014l0.084-0.042l0.057-0.098l0.027-0.127l0.085-0.252l0.028-0.111l0.041-0.127l0.099-0.237l0.042-0.14
		l0.027-0.084l0.057-0.141l0.027-0.112l0.085-0.252l0.042-0.112l0.14-0.42l0.07-0.168l0.084-0.252l0.042-0.112l0.057-0.14
		l0.027-0.084l0.112-0.253l0.042-0.112l0.126-0.238l0.056-0.111l0.127-0.098l0.153-0.057h0.14l0.127,0.014l0.14,0.028l0.084,0.028
		l0.14,0.041l0.099,0.07l0.042,0.112L94.25,7.765l-0.028,0.126l-0.056,0.126L94.109,8.13l-0.042,0.112l-0.042,0.125l-0.07,0.169
		l-0.056,0.168l-0.056,0.154l-0.168,0.448l-0.057,0.168l-0.07,0.168l-0.042,0.126l-0.042,0.112l-0.098,0.294l-0.07,0.168
		l-0.042,0.14L93.1,10.945l-0.028,0.126l-0.041,0.112l-0.043,0.126l-0.041,0.112l-0.043,0.126l-0.041,0.112l-0.029,0.125
		l-0.027,0.113l-0.027,0.125l-0.043,0.127l-0.041,0.111l-0.043,0.127l-0.027,0.125l-0.028,0.113l-0.028,0.125l-0.042,0.127
		l-0.042,0.182l-0.056,0.182L92.4,13.326l-0.042,0.154l-0.028,0.127l-0.027,0.168l-0.028,0.182l-0.084,0.378l-0.015,0.126
		l-0.027,0.127l-0.028,0.182l-0.028,0.168l-0.014,0.126l-0.027,0.126l-0.015,0.127v0.125l0.015,0.141l0.014,0.182l0.042,0.168
		l0.042,0.127l0.084,0.084l0.111,0.041l0.127,0.015l0.111-0.028l0.127-0.042l0.111-0.069l0.252-0.225l0.099-0.098l0.14-0.197
		l0.141-0.223l0.195-0.281l0.07-0.111l0.057-0.112l0.07-0.126l0.14-0.309l0.069-0.126l0.057-0.099l0.057-0.125l0.069-0.154
		l0.154-0.112l0.168,0.028l0.099,0.14v0.183l-0.07,0.168l-0.07,0.141l-0.084,0.153l-0.084,0.183l-0.057,0.084l-0.168,0.336
		l-0.084,0.126l-0.182,0.294l-0.141,0.225l-0.07,0.098l-0.084,0.112l-0.069,0.098l-0.084,0.085l-0.099,0.084l-0.098,0.111
		l-0.057,0.057l-0.098,0.111l-0.098,0.084l-0.112,0.07l-0.099,0.057l-0.111,0.055l-0.364,0.127l-0.126,0.027h-0.112L91.91,17.01
		l-0.126-0.015l-0.126-0.027l-0.112-0.057l-0.112-0.07l-0.084-0.069l-0.098-0.099l-0.141-0.195l-0.056-0.112l-0.042-0.126
		l-0.027-0.112l-0.043-0.378v-0.266l-0.027-0.015l-0.07,0.099l-0.07,0.111l-0.126,0.225l-0.069,0.098l-0.084,0.098l-0.154,0.197
		l-0.084,0.084l-0.295,0.252l-0.126,0.098l-0.14,0.111l-0.127,0.085l-0.111,0.056l-0.141,0.042l-0.322,0.07l-0.14,0.028
		l-0.126,0.014l-0.112-0.014l-0.126-0.014l-0.126-0.029l-0.112-0.027l-0.126-0.057L88.03,16.94l-0.112-0.084l-0.126-0.126
		l-0.126-0.112l-0.07-0.112l-0.056-0.111l-0.042-0.127l-0.084-0.224l-0.043-0.126l-0.014-0.126l-0.014-0.168v-0.183l-0.014-0.125
		v-0.127l0.014-0.141l0.014-0.168l0.028-0.182l0.028-0.126l0.041-0.14l0.015-0.084l0.042-0.141l0.042-0.126l0.126-0.337l0.042-0.125
		l0.112-0.225l0.084-0.154l0.07-0.154l0.084-0.14l0.056-0.069l0.085-0.113l0.139-0.195L88.436,12.472z M91.294,11.982l-0.267,0.014
		h-0.125l-0.127,0.027l-0.14,0.028l-0.085,0.028l-0.14,0.056l-0.126,0.042l-0.126,0.057l-0.112,0.07l-0.098,0.069l-0.098,0.084
		l-0.099,0.099l-0.196,0.168l-0.084,0.084l-0.084,0.098l-0.168,0.211l-0.07,0.098l-0.07,0.126l-0.168,0.308l-0.069,0.112
		l-0.042,0.112l-0.043,0.126l-0.041,0.112l-0.057,0.126l-0.084,0.336l-0.042,0.126l-0.028,0.182l-0.014,0.168l-0.014,0.141
		l0.027,0.182l0.028,0.225l0.028,0.182l0.042,0.127l0.069,0.098l0.084,0.084l0.099,0.084l0.126,0.057l0.168,0.027l0.168-0.014
		l0.141-0.057l0.084-0.041l0.126-0.07l0.099-0.07l0.168-0.168l0.098-0.112l0.084-0.098l0.098-0.099l0.07-0.098l0.07-0.111
		l0.084-0.127l0.098-0.168l0.099-0.126l0.056-0.112l0.057-0.126l0.041-0.112l0.057-0.125l0.07-0.169l0.07-0.153l0.055-0.127
		l0.043-0.111l0.195-0.589l0.057-0.183l0.111-0.447l0.043-0.183l0.042-0.14l0.028-0.154l-0.043-0.126l-0.098-0.056H91.294z"/>
	<path fill="#8C8B8B" d="M98.714,13.621l-0.069,0.098l-0.169,0.196l-0.196,0.168l-0.098,0.069l-0.126,0.07l-0.084,0.028l-0.14,0.084
		l-0.084,0.042l-0.127,0.057l-0.14,0.041l-0.126,0.043l-0.127,0.014l-0.14,0.027l-0.153,0.015l-0.169,0.028l-0.126,0.014h-0.126
		l-0.252-0.027l-0.253-0.015l-0.125-0.015l-0.379-0.084h-0.098l-0.07,0.057l-0.027,0.098v0.127l-0.015,0.14v0.238l0.015,0.14
		l0.027,0.112l0.084,0.252l0.141,0.224l0.084,0.099l0.084,0.084l0.225,0.14l0.14,0.043l0.126,0.041l0.098,0.015l0.127,0.028
		l0.125,0.014h0.141l0.126-0.014l0.364-0.07l0.126-0.027l0.126-0.043l0.112-0.042l0.237-0.098l0.225-0.112l0.196-0.154l0.099-0.07
		l0.098-0.084l0.195-0.182l0.169-0.196l0.069-0.098l0.084-0.112l0.141-0.196l0.07-0.112l0.056-0.111l0.07-0.112l0.056-0.112
		l0.07-0.098l0.056-0.112l0.056-0.126l0.057-0.112l0.07-0.112l0.098-0.07h0.126l0.126,0.085l0.07,0.126l-0.014,0.126l-0.057,0.126
		l-0.07,0.154l-0.084,0.154l-0.069,0.154l-0.084,0.153l-0.085,0.14l-0.14,0.225l-0.042,0.084L99.33,15.4l-0.141,0.195l-0.084,0.098
		l-0.084,0.084l-0.084,0.099l-0.098,0.112l-0.042,0.056l-0.099,0.112l-0.084,0.098l-0.195,0.168l-0.141,0.112l-0.125,0.112
		l-0.225,0.141l-0.351,0.153l-0.112,0.042l-0.125,0.042l-0.183,0.028l-0.168,0.042l-0.294,0.028l-0.183,0.014l-0.153,0.014h-0.127
		l-0.504-0.056l-0.112-0.028l-0.126-0.042l-0.126-0.056l-0.112-0.057l-0.225-0.125l-0.111-0.057l-0.098-0.084l-0.099-0.098
		l-0.056-0.07l-0.098-0.112l-0.085-0.099l-0.069-0.111l-0.057-0.098l-0.056-0.127L94.26,15.82l-0.043-0.127l-0.027-0.125
		l-0.027-0.113l-0.029-0.125l-0.041-0.379v-0.266l0.014-0.127v-0.125l0.084-0.379l0.042-0.111l0.028-0.127l0.042-0.125l0.028-0.127
		l0.041-0.126l0.057-0.153l0.07-0.168l0.07-0.127l0.084-0.154l0.098-0.14l0.056-0.126l0.07-0.098l0.084-0.099l0.21-0.224l0.21-0.211
		l0.112-0.098l0.126-0.098l0.14-0.099l0.127-0.098l0.14-0.085l0.14-0.069l0.127-0.056l0.182-0.084l0.294-0.099l0.253-0.056
		l0.182-0.028h0.309l0.182,0.028l0.225,0.042l0.182,0.042l0.126,0.042l0.126,0.056l0.112,0.057l0.084,0.056l0.196,0.168l0.084,0.099
		l0.084,0.14l0.07,0.168l0.041,0.126l0.029,0.127l0.014,0.125v0.168l-0.014,0.183l-0.015,0.14l-0.042,0.168l-0.057,0.168
		l-0.056,0.141l-0.042,0.07l-0.07,0.126L98.714,13.621z M97.005,11.939l-0.196,0.084l-0.168,0.084l-0.111,0.07l-0.197,0.168
		l-0.125,0.127l-0.112,0.125l-0.099,0.113l-0.098,0.153l-0.098,0.14l-0.07,0.127l-0.084,0.154l-0.057,0.168l-0.056,0.125
		l-0.042,0.113l-0.014,0.098l0.07,0.07L95.73,13.9l0.279,0.015l0.141,0.014h0.393l0.14-0.028l0.126-0.027l0.141-0.057l0.084-0.027
		l0.14-0.07l0.099-0.07l0.098-0.084l0.098-0.098l0.099-0.084l0.084-0.112l0.069-0.099l0.057-0.111l0.07-0.126l0.084-0.253
		l0.027-0.14l0.015-0.126l-0.015-0.141l-0.056-0.125l-0.084-0.099l-0.112-0.084l-0.126-0.056l-0.126-0.028l-0.126-0.015l-0.14,0.029
		L97.005,11.939z"/>
	<path fill="#8C8B8B" d="M100.349,10.834l-0.125-0.379l-0.015-0.126v-0.126l0.028-0.127l0.056-0.125l0.07-0.099l0.084-0.098
		l0.099-0.085l0.111-0.055l0.126-0.029h0.126l0.127,0.029l0.111,0.069l0.084,0.084l0.057,0.112l0.041,0.126v0.378l-0.027,0.141
		v0.111l0.027,0.112l0.07,0.099l0.098,0.098l0.099,0.084l0.099,0.112l0.154,0.183l0.098,0.084l0.182,0.182l0.098,0.111l0.057,0.07
		l0.098,0.112l0.099,0.084l0.084,0.099l0.14,0.224l0.043,0.126l0.041,0.168l0.043,0.182l-0.015,0.127l-0.042,0.126l-0.057,0.112
		l-0.084,0.098l-0.14,0.225l-0.084,0.098l-0.069,0.111l-0.07,0.099l-0.084,0.112l-0.07,0.111l-0.084,0.113l-0.07,0.111l-0.238,0.477
		l-0.042,0.126l-0.042,0.112l-0.027,0.125l-0.028,0.141l-0.028,0.127l-0.014,0.125v0.141l0.056,0.279l0.07,0.113l0.069,0.125
		l0.099,0.084l0.112,0.07l0.14,0.028h0.267l0.126-0.028l0.126-0.041l0.126-0.057l0.099-0.07l0.209-0.141l0.112-0.084l0.099-0.084
		l0.084-0.084l0.084-0.111l0.252-0.295l0.21-0.336l0.07-0.098l0.069-0.126l0.07-0.112l0.057-0.111l0.07-0.127l0.041-0.084
		l0.084-0.154l0.057-0.111l0.042-0.112l0.056-0.112l0.127-0.07l0.182,0.043l0.126,0.14v0.153l-0.042,0.127l-0.112,0.238
		l-0.056,0.111l-0.07,0.112l-0.111,0.224l-0.141,0.225l-0.07,0.126l-0.056,0.07l-0.07,0.126l-0.14,0.225l-0.168,0.224l-0.113,0.154
		l-0.098,0.14l-0.168,0.196l-0.098,0.084l-0.168,0.168l-0.112,0.085l-0.126,0.084l-0.225,0.111l-0.126,0.057l-0.112,0.056
		l-0.125,0.042l-0.113,0.027l-0.14,0.029h-0.321l-0.183-0.015l-0.28-0.056l-0.112-0.043l-0.14-0.069l-0.211-0.14l-0.098-0.084
		l-0.084-0.085l-0.084-0.112l-0.07-0.098l-0.056-0.126l-0.056-0.112l-0.028-0.126l-0.028-0.14l-0.027-0.127l-0.015-0.125v-0.127
		l0.056-0.504l0.043-0.126l0.041-0.112l0.057-0.126l0.07-0.153l0.084-0.154l0.07-0.127l0.098-0.154l0.098-0.14l0.07-0.126
		l0.084-0.154l0.112-0.154l0.084-0.111l0.112-0.196l0.154-0.224l0.069-0.154l0.042-0.211l-0.027-0.168l-0.141-0.224l-0.084-0.112
		l-0.225-0.252l-0.084-0.098l-0.111-0.084l-0.112,0.027l-0.056,0.127l-0.028,0.125l-0.042,0.127l-0.028,0.125l-0.028,0.113
		l-0.041,0.125l-0.127,0.336l-0.041,0.127l-0.043,0.111l-0.042,0.127l-0.069,0.168l-0.07,0.154l-0.057,0.125l-0.07,0.168
		l-0.069,0.154l-0.069,0.141l-0.07,0.154l-0.084,0.154l-0.07,0.111l-0.084,0.07h-0.127l-0.111-0.07l-0.084-0.098l0.014-0.112
		l0.042-0.126l0.056-0.126l0.043-0.112l0.041-0.126l0.113-0.252l0.041-0.084l0.057-0.14l0.056-0.113l0.042-0.125l0.057-0.127
		l0.041-0.125l0.043-0.113l0.111-0.252l0.028-0.125l0.042-0.127l0.028-0.126l0.056-0.126l0.028-0.126l0.028-0.112l0.027-0.126
		l0.042-0.126l0.028-0.141V11.17l-0.028-0.113L100.349,10.834z"/>
	<path fill="#8C8B8B" d="M104.969,16.969l-0.154-0.154l-0.084-0.168l-0.042-0.126l0.014-0.183l0.084-0.195l0.127-0.127l0.125-0.07
		l0.168-0.027h0.225l0.168,0.042l0.127,0.056l0.125,0.127l0.084,0.14l0.029,0.126v0.141l-0.029,0.125l-0.098,0.141l-0.168,0.141
		l-0.168,0.084l-0.126,0.027l-0.126,0.014l-0.127-0.027L104.969,16.969z"/>
</g>
</svg>
