<?xml version="1.0" encoding="utf-8"?>
<!-- Generator: Adobe Illustrator 16.0.3, SVG Export Plug-In . SVG Version: 6.00 Build 0)  -->
<!DOCTYPE svg PUBLIC "-//W3C//DTD SVG 1.1//EN" "http://www.w3.org/Graphics/SVG/1.1/DTD/svg11.dtd">
<svg version="1.1" id="Calque_1" xmlns="http://www.w3.org/2000/svg" xmlns:xlink="http://www.w3.org/1999/xlink" x="0px" y="0px"
	 width="93.497px" height="19.598px" viewBox="-32.179 2.69 93.497 19.598" enable-background="new -32.179 2.69 93.497 19.598"
	 xml:space="preserve">
<g>
	<path fill="#231F20" d="M-32.179,22.008v-3.369l10.501-12.467h-8.255c-0.562,0-1.039-0.197-1.432-0.59s-0.59-0.87-0.59-1.432V2.69
		h15.105v3.369L-27.35,18.525h10.276v3.482H-32.179z"/>
	<path fill="#231F20" d="M-5.73,17.402h2.808c-0.413,1.572-1.199,2.771-2.358,3.594c-1.161,0.862-2.621,1.292-4.38,1.292
		c-2.134,0-3.8-0.692-4.998-2.077c-1.199-1.348-1.797-3.275-1.797-5.785c0-2.395,0.58-4.268,1.741-5.615
		c1.198-1.385,2.864-2.077,4.998-2.077c2.247,0,3.987,0.674,5.223,2.021c1.198,1.386,1.797,3.313,1.797,5.784c0,0.15,0,0.28,0,0.393
		s0,0.188,0,0.225c0,0.188-0.02,0.318-0.056,0.394h-9.715c0.037,1.161,0.318,2.021,0.842,2.583c0.486,0.6,1.216,0.898,2.19,0.898
		c0.636,0,1.18-0.131,1.629-0.393c0.112-0.037,0.215-0.104,0.309-0.197c0.093-0.093,0.197-0.196,0.309-0.309
		c0.037-0.112,0.177-0.262,0.421-0.449C-6.526,17.496-6.179,17.402-5.73,17.402z M-12.469,13.022h5.728
		c-0.076-1.011-0.337-1.759-0.786-2.246C-8.014,10.252-8.706,9.99-9.605,9.99c-0.824,0-1.498,0.262-2.021,0.786
		C-12.151,11.301-12.432,12.05-12.469,13.022z"/>
	<path fill="#231F20" d="M10.947,22.008H8.982c-0.562,0-1.021-0.178-1.376-0.534c-0.356-0.354-0.533-0.813-0.533-1.376v-7.637
		c0-0.898-0.272-1.553-0.814-1.965c-0.543-0.412-1.151-0.618-1.825-0.618s-1.272,0.206-1.797,0.618S1.85,11.562,1.85,12.461v9.547
		H-2.08v-8.761c0-2.546,0.664-4.248,1.994-5.11c1.329-0.86,2.798-1.328,4.408-1.403c1.647,0,3.163,0.431,4.549,1.292
		c1.385,0.861,2.077,2.602,2.077,5.222V22.008z"/>
	<path fill="#EC1E24" d="M15.552,15.099v6.908h-3.987V4.712c0-0.562,0.196-1.039,0.59-1.432c0.393-0.393,0.87-0.589,1.432-0.589
		h6.57c2.059,0,3.594,0.524,4.604,1.572c1.048,1.048,1.572,2.603,1.572,4.661c0,1.946-0.505,3.48-1.517,4.604
		c-1.011,1.049-2.471,1.572-4.38,1.572H15.552z M15.552,11.619h3.874c1.048,0,1.797-0.225,2.246-0.674
		c0.486-0.412,0.73-1.123,0.73-2.135c0-0.86-0.225-1.553-0.674-2.077c-0.524-0.449-1.217-0.674-2.078-0.674h-4.099V11.619z"/>
	<path fill="#EC1E24" d="M27.064,22.008V4.712c0-0.562,0.196-1.039,0.59-1.432c0.393-0.393,0.87-0.589,1.432-0.589h5.56
		c2.957,0,5.166,0.786,6.626,2.358c1.46,1.647,2.19,4.08,2.19,7.3c0,1.723-0.263,3.276-0.786,4.661
		c-0.6,1.423-1.386,2.508-2.359,3.257c-0.823,0.637-1.703,1.086-2.639,1.348c-0.898,0.263-2.266,0.394-4.1,0.394H27.064z
		 M30.939,18.525h3.2c1.834,0,3.182-0.486,4.043-1.459c0.823-0.898,1.235-2.472,1.235-4.718c0-2.171-0.393-3.763-1.179-4.772
		c-0.749-1.012-1.947-1.517-3.594-1.517h-3.706V18.525z"/>
	<path fill="#EC1E24" d="M50.929,22.008L44.247,2.69h4.437l4.099,14.432L56.545,4.15c0.225-0.973,0.86-1.46,1.909-1.46h2.864
		l-6.57,19.317H50.929z"/>
</g>
</svg>
